<?xml version="1.0" encoding="utf-8"?>
<svg version="1.1" xmlns="http://www.w3.org/2000/svg" xmlns:xlink="http://www.w3.org/1999/xlink" x="0px" y="0px" width="1920px"
	 height="1080px" viewBox="0 0 1920 1080" style="enable-background:new 0 0 1920 1080;" xml:space="preserve">
<style type="text/css">
	.st0{fill:none;stroke:#000000;stroke-width:10;stroke-linecap:round;stroke-miterlimit:10;}
	.st1{font-family:'SofiaPro-Regular';}
	.st2{font-size:320px;}
	.st3{letter-spacing:-21;}
	.st4{fill:none;}
	.st5{stroke:#FFFFFF;stroke-miterlimit:10;}
	.st6{fill:#FFFFFF;stroke:#000000;stroke-miterlimit:10;}
	.st7{fill:#E9FF70;stroke:#000000;stroke-miterlimit:10;}
	.st8{fill:#FFFFFF;stroke:#000000;stroke-width:20;stroke-linecap:round;stroke-miterlimit:10;}
	.st9{display:none;}
	.st10{display:inline;fill:none;stroke:#000000;stroke-width:10;stroke-linecap:round;stroke-miterlimit:10;}
	.st11{display:inline;}
	.st12{font-family:'Impact';}
	.st13{font-size:317.9048px;}
	.st14{letter-spacing:11;}
</style>
<g id="Ebene_1">
	<path class="st0" d="M215.59,711.81V368.19c0-12.93,10.48-23.41,23.41-23.41h1453.18c12.93,0,23.41,10.48,23.41,23.41v343.62
		c0,12.93-10.48,23.41-23.41,23.41H239C226.07,735.22,215.59,724.74,215.59,711.81z"/>
	<path class="st0" d="M204.41,463.78v-41.8c0-3.52,2.85-6.38,6.38-6.38h7.35c3.52,0,6.38,2.85,6.38,6.38v41.8
		c0,3.52-2.85,6.38-6.38,6.38h-7.35C207.27,470.15,204.41,467.3,204.41,463.78z"/>
	<path class="st0" d="M204.41,648.17v-41.8c0-3.52,2.85-6.38,6.38-6.38h7.35c3.52,0,6.38,2.85,6.38,6.38v41.8
		c0,3.52-2.85,6.38-6.38,6.38h-7.35C207.27,654.54,204.41,651.69,204.41,648.17z"/>
	<text transform="matrix(1 0 0 1 271.9714 640.1538)" class="st1 st2 st3">Money Bin</text>
	<rect x="588.82" y="397.24" class="st4" width="180" height="298"/>
	<g>
		<circle class="st5" cx="637.35" cy="535.07" r="119.47"/>
		<ellipse class="st6" cx="637.35" cy="535.07" rx="98.11" ry="97.3"/>
		<circle class="st5" cx="637.35" cy="535.42" r="66.04"/>
		<circle class="st7" cx="637.35" cy="535.42" r="33.55"/>
		<line class="st8" x1="637.35" y1="487.65" x2="637.35" y2="453.38"/>
		<line class="st8" x1="637.35" y1="616.77" x2="637.35" y2="582.49"/>
		<line class="st8" x1="683.85" y1="535.07" x2="718.12" y2="535.07"/>
		<line class="st8" x1="672.22" y1="568.26" x2="698.48" y2="590.29"/>
		<line class="st8" x1="698.28" y1="482.45" x2="672.41" y2="504.94"/>
		<line class="st8" x1="603.89" y1="568.82" x2="578.02" y2="591.3"/>
		<line class="st8" x1="576.23" y1="479.07" x2="602.49" y2="501.1"/>
		<line class="st8" x1="556.68" y1="535.07" x2="590.96" y2="535.07"/>
	</g>
</g>
<g id="Ebene_1_Kopie" class="st9">
	<path class="st10" d="M399.95,397.61V296.07c0-3.52,2.85-6.38,6.38-6.38h7.35c3.52,0,6.38,2.85,6.38,6.38v101.54
		c0,3.52-2.85,6.38-6.38,6.38h-7.35C402.8,403.99,399.95,401.14,399.95,397.61z"/>
	<path class="st10" d="M399.95,783.93V682.39c0-3.52,2.85-6.38,6.38-6.38h7.35c3.52,0,6.38,2.85,6.38,6.38v101.54
		c0,3.52-2.85,6.38-6.38,6.38h-7.35C402.8,790.31,399.95,787.45,399.95,783.93z"/>
	<g class="st11">
		<text transform="matrix(1 0 0 1 752.3872 836.2695)" class="st12 st13 st14">Bin</text>
		<text transform="matrix(1 0 0 1 490.8154 506.2695)" class="st12 st13 st14">Money </text>
		<rect x="725.19" y="254.5" class="st4" width="160.25" height="265.3"/>
		<g>
			<circle class="st5" cx="805.32" cy="387.15" r="132.65"/>
			<ellipse class="st6" cx="805.32" cy="387.15" rx="108.93" ry="108.04"/>
			<circle class="st5" cx="805.32" cy="387.15" r="49.95"/>
			<circle class="st7" cx="805.32" cy="387.54" r="37.25"/>
			<line class="st8" x1="805.32" y1="334.51" x2="805.32" y2="296.45"/>
			<line class="st8" x1="805.32" y1="477.86" x2="805.32" y2="439.8"/>
			<line class="st8" x1="856.94" y1="387.15" x2="895" y2="387.15"/>
			<line class="st8" x1="844.03" y1="424" x2="873.19" y2="448.46"/>
			<line class="st8" x1="872.97" y1="328.73" x2="844.25" y2="353.7"/>
			<line class="st8" x1="768.17" y1="424.62" x2="739.45" y2="449.59"/>
			<line class="st8" x1="737.46" y1="324.97" x2="766.61" y2="349.44"/>
			<line class="st8" x1="715.75" y1="387.15" x2="753.81" y2="387.15"/>
		</g>
	</g>
</g>
<g id="Ebene_1_Kopie_2" class="st9">
	<path class="st10" d="M410,870.66V187.47c0-12.93,10.48-23.41,23.41-23.41h1033.18c12.93,0,23.41,10.48,23.41,23.41v683.18
		c0,12.93-10.48,23.41-23.41,23.41H433.41C420.48,894.07,410,883.58,410,870.66z"/>
	<path class="st10" d="M399.95,397.61V296.07c0-3.52,2.85-6.38,6.38-6.38h7.35c3.52,0,6.38,2.85,6.38,6.38v101.54
		c0,3.52-2.85,6.38-6.38,6.38h-7.35C402.8,403.99,399.95,401.14,399.95,397.61z"/>
	<path class="st10" d="M399.95,783.93V682.39c0-3.52,2.85-6.38,6.38-6.38h7.35c3.52,0,6.38,2.85,6.38,6.38v101.54
		c0,3.52-2.85,6.38-6.38,6.38h-7.35C402.8,790.31,399.95,787.45,399.95,783.93z"/>
	<g class="st11">
		<text transform="matrix(1 0 0 1 493.5792 804.2695)" class="st12 st13 st14">Bin</text>
		<text transform="matrix(1 0 0 1 490.8154 506.2695)" class="st12 st13 st14">Money </text>
		<rect x="725.19" y="254.5" class="st4" width="160.25" height="265.3"/>
		<g>
			<circle class="st5" cx="805.32" cy="387.15" r="132.65"/>
			<ellipse class="st6" cx="805.32" cy="387.15" rx="108.93" ry="108.04"/>
			<circle class="st5" cx="805.32" cy="387.15" r="49.95"/>
			<circle class="st7" cx="805.32" cy="387.54" r="37.25"/>
			<line class="st8" x1="805.32" y1="334.51" x2="805.32" y2="296.45"/>
			<line class="st8" x1="805.32" y1="477.86" x2="805.32" y2="439.8"/>
			<line class="st8" x1="856.94" y1="387.15" x2="895" y2="387.15"/>
			<line class="st8" x1="844.03" y1="424" x2="873.19" y2="448.46"/>
			<line class="st8" x1="872.97" y1="328.73" x2="844.25" y2="353.7"/>
			<line class="st8" x1="768.17" y1="424.62" x2="739.45" y2="449.59"/>
			<line class="st8" x1="737.46" y1="324.97" x2="766.61" y2="349.44"/>
			<line class="st8" x1="715.75" y1="387.15" x2="753.81" y2="387.15"/>
		</g>
	</g>
</g>
</svg>
