<?xml version="1.0" encoding="utf-8"?>
<svg xmlns="http://www.w3.org/2000/svg" viewBox="0 0 1800 880"
 preserveAspectRatio="xMidYMid meet">
    <style type="text/css">
        .st0{fill:none;stroke:#000000;stroke-width:10;stroke-linecap:round;stroke-miterlimit:10;}
        .st1{font-family:'SofiaPro-Regular';}
        .st2{font-size:320px;}
        .st3{letter-spacing:-21;}
        .st4{fill:none;}
        .st5{stroke:#FFFFFF;stroke-miterlimit:10;}
        .st6{fill:#FFFFFF;stroke:#000000;stroke-miterlimit:10;}
        .st7{fill:#E9FF70;stroke:#000000;stroke-miterlimit:10;}
        .st8{fill:#FFFFFF;stroke:#000000;stroke-width:20;stroke-linecap:round;stroke-miterlimit:10;}
        .st9{display:none;}
        .st10{display:inline;fill:none;stroke:#000000;stroke-width:10;stroke-linecap:round;stroke-miterlimit:10;}
        .st11{display:inline;}
        .st12{font-family:'Impact';}
        .st13{font-size:317.9048px;}
        .st14{letter-spacing:11;}
    </style>
    <g id="Ebene_1">
        <path class="st0" d="M215.59,711.81V368.19c0-12.93,10.48-23.41,23.41-23.41h1453.18c12.93,0,23.41,10.48,23.41,23.41v343.62
            c0,12.93-10.48,23.41-23.41,23.41H239C226.07,735.22,215.59,724.74,215.59,711.81z"/>
        <path class="st0" d="M204.41,463.78v-41.8c0-3.52,2.85-6.38,6.38-6.38h7.35c3.52,0,6.38,2.85,6.38,6.38v41.8
            c0,3.52-2.85,6.38-6.38,6.38h-7.35C207.27,470.15,204.41,467.3,204.41,463.78z"/>
        <path class="st0" d="M204.41,648.17v-41.8c0-3.52,2.85-6.38,6.38-6.38h7.35c3.52,0,6.38,2.85,6.38,6.38v41.8
            c0,3.52-2.85,6.38-6.38,6.38h-7.35C207.27,654.54,204.41,651.69,204.41,648.17z"/>
        <text transform="matrix(1 0 0 1 271.9714 640.1538)" class="st1 st2 st3">Money Bin</text>
        <rect x="588.82" y="397.24" class="st4" width="180" height="298"/>
        <g>
            <circle class="st5" cx="637.35" cy="535.07" r="119.47"/>
            <ellipse class="st6" cx="637.35" cy="535.07" rx="98.11" ry="97.3"/>
            <circle class="st5" cx="637.35" cy="535.42" r="66.04"/>
            <circle class="st7" cx="637.35" cy="535.42" r="33.55"/>
            <line class="st8" x1="637.35" y1="487.65" x2="637.35" y2="453.38"/>
            <line class="st8" x1="637.35" y1="616.77" x2="637.35" y2="582.49"/>
            <line class="st8" x1="683.85" y1="535.07" x2="718.12" y2="535.07"/>
            <line class="st8" x1="672.22" y1="568.26" x2="698.48" y2="590.29"/>
            <line class="st8" x1="698.28" y1="482.45" x2="672.41" y2="504.94"/>
            <line class="st8" x1="603.89" y1="568.82" x2="578.02" y2="591.3"/>
            <line class="st8" x1="576.23" y1="479.07" x2="602.49" y2="501.1"/>
            <line class="st8" x1="556.68" y1="535.07" x2="590.96" y2="535.07"/>
        </g>
    </g>
</svg>
