<svg version="1.1" id="Layer_1" xmlns="http://www.w3.org/2000/svg" xmlns:xlink="http://www.w3.org/1999/xlink" x="0px" y="0px"
	 width="100%" viewBox="0 0 512 512" enable-background="new 0 0 512 512" xml:space="preserve">
<path fill="#010101" opacity="1.000000" stroke="none" 
	d="
M244.000000,1.000001 
	C252.687561,1.000000 261.375122,1.000000 270.875641,1.111089 
	C273.858154,1.576299 276.027679,1.930420 278.600342,2.393909 
	C280.681854,2.581351 282.360229,2.659425 284.337006,2.967066 
	C286.140472,3.308441 287.645508,3.420249 289.529541,3.623468 
	C290.944946,3.769329 291.981323,3.823780 293.304932,4.092260 
	C294.769501,4.413087 295.946930,4.519886 297.476196,4.720927 
	C298.553619,4.865998 299.279205,4.916828 300.225830,5.169303 
	C301.017059,5.409575 301.587311,5.448200 302.550751,5.626065 
	C319.363495,10.491057 336.417633,13.689260 352.094513,20.202501 
	C426.716156,51.205368 476.283722,105.724869 501.025604,182.663925 
	C506.902008,200.937622 509.967529,219.806091 511.401184,239.355347 
	C511.235779,251.199112 511.180328,262.610870 511.058594,274.475891 
	C508.465912,290.674500 507.270325,306.774994 503.180023,322.102997 
	C486.523743,384.520355 451.116699,434.135498 397.035858,469.433594 
	C334.666412,510.141602 266.334167,522.396179 194.357849,503.334106 
	C102.467827,478.998077 41.868984,419.901093 12.915864,329.384491 
	C7.243326,311.650360 5.781363,292.569366 2.513510,273.688599 
	C2.548131,261.805298 2.446658,250.342972 2.504575,238.454712 
	C3.983249,227.973129 4.696486,217.793747 6.719598,207.881744 
	C20.449484,140.613617 55.285671,86.925461 111.345543,47.226276 
	C141.661362,25.757925 175.427155,12.310409 212.107620,5.457440 
	C212.913712,5.364043 213.450378,5.148597 214.353058,4.942920 
	C215.440186,4.838428 216.161331,4.724167 217.230850,4.702755 
	C218.709747,4.478968 219.840240,4.162333 221.361847,3.865248 
	C222.782791,3.739069 223.812668,3.593340 225.208771,3.572078 
	C227.032715,3.371229 228.490433,3.045912 230.358673,2.754591 
	C232.127182,2.628570 233.485168,2.468554 235.255829,2.462379 
	C238.445679,2.077480 241.222839,1.538741 244.000000,1.000001 
M359.680634,191.500137 
	C359.680634,182.207809 359.680634,172.915482 359.680634,163.085739 
	C361.758240,163.085739 363.378143,163.086487 364.998047,163.085602 
	C374.329010,163.080536 383.661865,163.185349 392.990265,163.027802 
	C398.463562,162.935379 402.435150,159.005768 402.533295,154.086990 
	C402.632172,149.131638 398.672211,145.134064 393.315735,144.889435 
	C390.987701,144.783112 388.651093,144.860123 386.318390,144.859726 
	C377.539917,144.858215 368.761444,144.859116 359.679688,144.859116 
	C359.679688,139.727768 359.727325,135.240723 359.668549,130.755096 
	C359.579041,123.924706 356.225464,119.952141 350.608093,119.906715 
	C345.035431,119.861656 341.422821,123.977234 341.326447,130.608551 
	C341.259369,135.222885 341.313507,139.839005 341.313507,144.600845 
	C284.880676,144.600845 228.981445,144.600845 172.684601,144.600845 
	C172.684601,139.545105 172.788971,134.740143 172.658508,129.941544 
	C172.490860,123.774948 168.624573,119.768715 163.213089,119.910393 
	C157.941605,120.048393 154.487747,123.857414 154.346268,129.923248 
	C154.234451,134.717361 154.323792,139.516159 154.323792,144.859207 
	C144.088287,144.859207 134.301910,144.857056 124.515533,144.859863 
	C115.912643,144.862350 111.598175,147.800400 111.461441,153.741272 
	C111.321625,159.816116 115.925301,163.080917 124.652397,163.084656 
	C134.430832,163.088852 144.209274,163.085632 154.046173,163.085632 
	C154.046173,221.787140 154.046173,279.859314 154.046173,338.184692 
	C152.834320,338.283142 151.872406,338.427155 150.910202,338.429291 
	C140.912781,338.451233 130.913391,338.335052 120.918625,338.501709 
	C115.455215,338.592773 111.507355,342.591003 111.458687,347.522095 
	C111.410416,352.413452 115.406631,356.440094 120.758156,356.741730 
	C123.249931,356.882172 125.755455,356.783936 128.254745,356.784668 
	C136.859680,356.787201 145.464630,356.785645 154.319351,356.785645 
	C154.319351,359.434601 154.317459,361.412445 154.319687,363.390289 
	C154.327377,370.221832 154.192245,377.057617 154.391022,383.883606 
	C154.548050,389.275818 158.121185,392.861298 163.031815,393.084869 
	C168.076355,393.314514 172.100052,389.658936 172.613052,384.224945 
	C172.800247,382.241974 172.683670,380.229279 172.685211,378.230133 
	C172.690704,371.147369 172.687363,364.064606 172.687363,357.099426 
	C229.281982,357.099426 285.180511,357.099426 341.312744,357.099426 
	C341.312744,365.557495 341.278961,373.702789 341.322968,381.847656 
	C341.361084,388.900452 344.872650,393.115662 350.574463,393.090881 
	C356.323486,393.065887 359.627350,389.005737 359.668121,381.766266 
	C359.713898,373.637482 359.678650,365.508179 359.678650,356.785583 
	C369.806335,356.785583 379.585022,356.788269 389.363708,356.784760 
	C398.019257,356.781677 402.682770,353.449219 402.524261,347.389893 
	C402.369690,341.481262 397.939423,338.447296 389.438141,338.442810 
	C379.663055,338.437683 369.888000,338.441650 359.680603,338.441650 
	C359.680603,289.386017 359.680603,240.943085 359.680634,191.500137 
z"/>
<path fill="none" opacity="1.000000" stroke="none" 
	d="
M2.377419,274.109589 
	C5.781363,292.569366 7.243326,311.650360 12.915864,329.384491 
	C41.868984,419.901093 102.467827,478.998077 194.357849,503.334106 
	C266.334167,522.396179 334.666412,510.141602 397.035858,469.433594 
	C451.116699,434.135498 486.523743,384.520355 503.180023,322.102997 
	C507.270325,306.774994 508.465912,290.674500 511.370911,274.459625 
	C512.166321,273.993378 512.583130,273.996674 513.000000,274.000000 
	C513.000000,353.631439 513.000000,433.262909 513.000000,512.947144 
	C342.444031,512.947144 171.888046,512.947144 1.000000,512.947144 
	C1.000000,433.646088 1.000000,354.291687 1.231220,274.490234 
	C1.462439,274.043182 1.914341,274.153290 1.914341,274.153290 
	C1.914341,274.153290 2.377419,274.109589 2.377419,274.109589 
z"/>
<path fill="none" opacity="1.000000" stroke="none" 
	d="
M300.004791,4.967657 
	C299.279205,4.916828 298.553619,4.865998 297.396362,4.414372 
	C295.649048,3.968461 294.333405,3.923346 293.017731,3.878231 
	C291.981323,3.823780 290.944946,3.769329 289.502014,3.297763 
	C289.063629,2.253765 289.031830,1.626882 289.000000,1.000000 
	C363.595917,1.000000 438.191803,1.000000 513.000000,1.000000 
	C513.000000,80.020767 513.000000,159.041733 512.749878,238.520142 
	C512.170166,238.959503 511.840607,238.941406 511.511078,238.923325 
	C509.967529,219.806091 506.902008,200.937622 501.025604,182.663925 
	C476.283722,105.724869 426.716156,51.205368 352.094513,20.202501 
	C336.417633,13.689260 319.363495,10.491057 302.517578,5.372046 
	C301.395721,4.975076 300.700256,4.971366 300.004791,4.967657 
z"/>
<path fill="none" opacity="1.000000" stroke="none" 
	d="
M211.838211,5.335395 
	C175.427155,12.310409 141.661362,25.757925 111.345543,47.226276 
	C55.285671,86.925461 20.449484,140.613617 6.719598,207.881744 
	C4.696486,217.793747 3.983249,227.973129 2.278162,238.434265 
	C1.601008,238.927139 1.303556,238.980560 1.000000,239.000000 
	C1.000000,159.741837 1.000000,80.483665 1.000000,1.000000 
	C75.354073,1.000000 149.708374,1.000000 224.628403,1.301010 
	C225.076935,2.217218 224.959732,2.832415 224.842529,3.447611 
	C223.812668,3.593340 222.782791,3.739069 221.154053,3.626079 
	C219.330933,3.781544 218.106705,4.195727 216.882462,4.609908 
	C216.161331,4.724167 215.440186,4.838428 214.211029,4.748807 
	C213.081390,4.808416 212.459808,5.071907 211.838211,5.335395 
z"/>
<path fill="#DBDBDB" opacity="1.000000" stroke="none" 
	d="
M511.401184,239.355347 
	C511.840607,238.941406 512.170166,238.959503 512.749878,238.988800 
	C513.000000,250.354233 513.000000,261.708466 513.000000,273.531342 
	C512.583130,273.996674 512.166321,273.993378 511.437164,274.006348 
	C511.180328,262.610870 511.235779,251.199112 511.401184,239.355347 
z"/>
<path fill="#D3D3D3" opacity="1.000000" stroke="none" 
	d="
M1.000000,239.468658 
	C1.303556,238.980560 1.601008,238.927139 2.118771,238.860199 
	C2.446658,250.342972 2.548131,261.805298 2.513511,273.688599 
	C2.377419,274.109589 1.914341,274.153290 1.914341,274.153290 
	C1.914341,274.153290 1.462439,274.043182 1.231220,274.021606 
	C1.000000,262.645782 1.000000,251.291550 1.000000,239.468658 
z"/>
<path fill="#BABABA" opacity="1.000000" stroke="none" 
	d="
M243.550018,1.000001 
	C241.222839,1.538741 238.445679,2.077480 235.244736,2.237078 
	C235.016403,1.600267 235.076080,1.314288 235.000000,1.000000 
	C237.700012,1.000000 240.400024,1.000000 243.550018,1.000001 
z"/>
<path fill="#FEFEFE" opacity="1.000000" stroke="none" 
	d="
M284.038605,2.737499 
	C282.360229,2.659425 280.681854,2.581351 278.602966,2.171402 
	C278.000732,1.592023 277.933258,1.312181 278.000000,1.000000 
	C280.700043,1.000000 283.400116,1.000000 286.459595,1.301761 
	C285.892242,1.981514 284.965424,2.359506 284.038605,2.737499 
z"/>
<path fill="#B8B8B8" opacity="1.000000" stroke="none" 
	d="
M277.562500,1.000000 
	C277.933258,1.312181 278.000732,1.592023 278.199829,2.062035 
	C276.027679,1.930420 273.858154,1.576299 271.344299,1.111089 
	C273.041656,1.000000 275.083344,1.000000 277.562500,1.000000 
z"/>
<path fill="#FEFEFE" opacity="1.000000" stroke="none" 
	d="
M234.555832,1.000000 
	C235.076080,1.314288 235.016403,1.600267 234.832062,2.083238 
	C233.485168,2.468554 232.127182,2.628570 230.168152,2.510151 
	C228.711411,1.821144 227.855698,1.410572 227.000000,1.000000 
	C229.370560,1.000000 231.741104,1.000000 234.555832,1.000000 
z"/>
<path fill="#B8B8B8" opacity="1.000000" stroke="none" 
	d="
M284.337006,2.967065 
	C284.965424,2.359506 285.892242,1.981514 286.909546,1.301761 
	C287.444458,1.000000 287.888885,1.000000 288.666687,1.000000 
	C289.031830,1.626882 289.063629,2.253765 289.123016,3.206352 
	C287.645508,3.420249 286.140472,3.308441 284.337006,2.967065 
z"/>
<path fill="#BABABA" opacity="1.000000" stroke="none" 
	d="
M226.666672,1.000000 
	C227.855698,1.410572 228.711411,1.821144 229.757629,2.476156 
	C228.490433,3.045912 227.032715,3.371229 225.208771,3.572079 
	C224.959732,2.832415 225.076935,2.217218 225.097061,1.301010 
	C225.444443,1.000000 225.888901,1.000000 226.666672,1.000000 
z"/>
<path fill="#F6F6F6" opacity="1.000000" stroke="none" 
	d="
M359.680603,192.000153 
	C359.680603,240.943085 359.680603,289.386017 359.680603,338.441650 
	C369.888000,338.441650 379.663055,338.437683 389.438141,338.442810 
	C397.939423,338.447296 402.369690,341.481262 402.524261,347.389893 
	C402.682770,353.449219 398.019257,356.781677 389.363708,356.784760 
	C379.585022,356.788269 369.806335,356.785583 359.678650,356.785583 
	C359.678650,365.508179 359.713898,373.637482 359.668121,381.766266 
	C359.627350,389.005737 356.323486,393.065887 350.574463,393.090881 
	C344.872650,393.115662 341.361084,388.900452 341.322968,381.847656 
	C341.278961,373.702789 341.312744,365.557495 341.312744,357.099426 
	C285.180511,357.099426 229.281982,357.099426 172.687363,357.099426 
	C172.687363,364.064606 172.690704,371.147369 172.685211,378.230133 
	C172.683670,380.229279 172.800247,382.241974 172.613052,384.224945 
	C172.100052,389.658936 168.076355,393.314514 163.031815,393.084869 
	C158.121185,392.861298 154.548050,389.275818 154.391022,383.883606 
	C154.192245,377.057617 154.327377,370.221832 154.319687,363.390289 
	C154.317459,361.412445 154.319351,359.434601 154.319351,356.785645 
	C145.464630,356.785645 136.859680,356.787201 128.254745,356.784668 
	C125.755455,356.783936 123.249931,356.882172 120.758156,356.741730 
	C115.406631,356.440094 111.410416,352.413452 111.458687,347.522095 
	C111.507355,342.591003 115.455215,338.592773 120.918625,338.501709 
	C130.913391,338.335052 140.912781,338.451233 150.910202,338.429291 
	C151.872406,338.427155 152.834320,338.283142 154.046173,338.184692 
	C154.046173,279.859314 154.046173,221.787140 154.046173,163.085632 
	C144.209274,163.085632 134.430832,163.088852 124.652397,163.084656 
	C115.925301,163.080917 111.321625,159.816116 111.461441,153.741272 
	C111.598175,147.800400 115.912643,144.862350 124.515533,144.859863 
	C134.301910,144.857056 144.088287,144.859207 154.323792,144.859207 
	C154.323792,139.516159 154.234451,134.717361 154.346268,129.923248 
	C154.487747,123.857414 157.941605,120.048393 163.213089,119.910393 
	C168.624573,119.768715 172.490860,123.774948 172.658508,129.941544 
	C172.788971,134.740143 172.684601,139.545105 172.684601,144.600845 
	C228.981445,144.600845 284.880676,144.600845 341.313507,144.600845 
	C341.313507,139.839005 341.259369,135.222885 341.326447,130.608551 
	C341.422821,123.977234 345.035431,119.861656 350.608093,119.906715 
	C356.225464,119.952141 359.579041,123.924706 359.668549,130.755096 
	C359.727325,135.240723 359.679688,139.727768 359.679688,144.859116 
	C368.761444,144.859116 377.539917,144.858215 386.318390,144.859726 
	C388.651093,144.860123 390.987701,144.783112 393.315735,144.889435 
	C398.672211,145.134064 402.632172,149.131638 402.533295,154.086990 
	C402.435150,159.005768 398.463562,162.935379 392.990265,163.027802 
	C383.661865,163.185349 374.329010,163.080536 364.998047,163.085602 
	C363.378143,163.086487 361.758240,163.085739 359.680634,163.085739 
	C359.680634,172.915482 359.680634,182.207809 359.680603,192.000153 
M236.500015,163.077896 
	C215.382446,163.077896 194.264877,163.077896 173.015747,163.077896 
	C173.015747,221.752960 173.015747,279.957397 173.015747,338.108215 
	C229.226883,338.108215 285.110992,338.108215 341.075897,338.108215 
	C341.075897,279.698578 341.075897,221.620117 341.075897,163.077896 
	C306.395447,163.077896 271.947754,163.077896 236.500015,163.077896 
z"/>
<path fill="#BABABA" opacity="1.000000" stroke="none" 
	d="
M217.230850,4.702757 
	C218.106705,4.195727 219.330933,3.781544 220.762970,3.606529 
	C219.840240,4.162333 218.709747,4.478968 217.230850,4.702757 
z"/>
<path fill="#B8B8B8" opacity="1.000000" stroke="none" 
	d="
M293.304932,4.092259 
	C294.333405,3.923346 295.649048,3.968461 297.044525,4.320130 
	C295.946930,4.519886 294.769501,4.413087 293.304932,4.092259 
z"/>
<path fill="#BABABA" opacity="1.000000" stroke="none" 
	d="
M212.107620,5.457443 
	C212.459808,5.071907 213.081390,4.808416 213.845032,4.739038 
	C213.450378,5.148597 212.913712,5.364043 212.107620,5.457443 
z"/>
<path fill="#B8B8B8" opacity="1.000000" stroke="none" 
	d="
M300.225830,5.169303 
	C300.700256,4.971366 301.395721,4.975076 302.124359,5.232805 
	C301.587311,5.448200 301.017059,5.409575 300.225830,5.169303 
z"/>
<path fill="#000000" opacity="1.000000" stroke="none" 
	d="
M237.000031,163.077896 
	C271.947754,163.077896 306.395447,163.077896 341.075897,163.077896 
	C341.075897,221.620117 341.075897,279.698578 341.075897,338.108215 
	C285.110992,338.108215 229.226883,338.108215 173.015747,338.108215 
	C173.015747,279.957397 173.015747,221.752960 173.015747,163.077896 
	C194.264877,163.077896 215.382446,163.077896 237.000031,163.077896 
z"/>
</svg>