<svg version="1.1" id="Layer_1" xmlns="http://www.w3.org/2000/svg" xmlns:xlink="http://www.w3.org/1999/xlink" x="0px" y="0px"
	 width="100%" viewBox="0 0 512 512" enable-background="new 0 0 512 512" xml:space="preserve">
<path fill="#000000" opacity="1.000000" stroke="none" 
	d="
M280.000000,513.000000 
	C264.645782,513.000000 249.291550,513.000000 233.111801,512.843384 
	C221.792511,511.003967 211.192749,509.969482 200.845520,507.394562 
	C109.589546,484.685394 47.712784,429.019531 14.637471,341.185791 
	C6.975057,320.837708 3.444788,299.516144 1.000000,278.000000 
	C1.000000,263.645782 1.000000,249.291550 1.000500,234.073441 
	C2.761041,228.119019 2.662122,222.723022 3.485259,217.483109 
	C11.262031,167.977753 31.697666,124.416679 64.867981,86.929092 
	C99.139900,48.196526 141.499405,22.387152 191.384827,8.855927 
	C206.021484,4.885793 221.015427,2.977302 236.000000,1.000000 
	C249.687561,1.000000 263.375122,1.000000 277.909912,1.119557 
	C283.379700,1.765677 288.020294,2.168282 292.622009,2.838379 
	C330.044800,8.287866 364.856812,20.874384 396.476776,41.706295 
	C450.837067,77.520020 486.820221,126.862450 504.562653,189.528152 
	C508.784668,204.440155 510.871429,219.716278 513.000000,235.000000 
	C513.000000,249.354233 513.000000,263.708466 512.941284,278.922882 
	C511.615601,288.486633 510.964630,297.332764 508.987946,305.872040 
	C485.202545,408.624023 423.011780,475.438141 321.642670,505.391388 
	C308.039154,509.411041 293.944061,510.808105 280.000000,513.000000 
M399.513550,179.143036 
	C357.357666,158.063644 315.135529,137.115036 273.090637,115.816528 
	C262.027985,110.212563 251.741882,110.299004 240.725494,115.857033 
	C190.179993,141.358475 139.503143,166.599686 88.860611,191.908630 
	C84.183044,194.246277 78.904503,196.387085 78.657478,202.421021 
	C78.416756,208.300919 83.613396,210.684021 87.831436,213.272797 
	C138.654816,244.465042 189.530777,275.571686 240.336105,306.793243 
	C251.574463,313.699615 262.594971,313.581940 273.714142,306.772125 
	C290.193542,296.679474 306.672272,286.585602 323.145966,276.483643 
	C358.222565,254.974152 393.351746,233.549484 428.335632,211.890198 
	C438.571136,205.553177 438.099945,198.646317 427.429413,193.125061 
	C418.407288,188.456741 409.275330,184.000717 399.513550,179.143036 
M342.273987,288.859650 
	C322.957336,300.697510 303.566589,312.416595 284.345245,324.407257 
	C265.723663,336.023743 247.518921,335.539551 228.983093,324.018250 
	C196.864639,304.054474 164.547867,284.409515 132.286758,264.675812 
	C124.577209,259.959991 121.305351,261.788147 121.279404,270.822266 
	C121.221481,290.986206 121.433418,311.152527 121.188057,331.313629 
	C121.085838,339.712708 123.594765,346.980164 128.348038,353.698914 
	C133.020645,360.303650 138.749893,365.867615 145.281998,370.550415 
	C175.732239,392.379761 210.579224,400.590057 247.200958,402.510742 
	C272.120911,403.817688 296.704498,400.790649 320.656097,393.580078 
	C342.588348,386.977478 363.126862,377.662842 379.498505,361.047760 
	C386.745239,353.693298 392.606750,345.338531 392.668762,334.407440 
	C392.796387,311.910950 392.770844,289.413269 392.721252,266.916290 
	C392.705902,259.957031 390.922394,258.978668 385.046875,262.567200 
	C370.972137,271.163605 356.938049,279.826569 342.273987,288.859650 
M409.194580,317.500000 
	C409.199371,328.326263 409.073792,339.154877 409.271667,349.977600 
	C409.353424,354.447662 408.214813,357.684479 404.526489,360.713379 
	C396.350525,367.427582 395.987213,378.958405 403.115662,386.415009 
	C410.198730,393.824127 421.892517,393.842010 428.991119,386.454620 
	C435.972809,379.188873 435.490265,367.390198 427.446808,360.718018 
	C423.976471,357.839355 422.777100,354.774292 422.793762,350.436462 
	C422.918274,317.958160 422.880493,285.479187 422.836273,253.000504 
	C422.833221,250.768967 423.538727,248.327637 421.782593,246.369370 
	C413.245422,247.710159 409.173859,252.134277 409.173004,260.036926 
	C409.170990,278.857941 409.186951,297.678986 409.194580,317.500000 
z"/>
</svg>