<svg version="1.1" id="Layer_1" xmlns="http://www.w3.org/2000/svg" xmlns:xlink="http://www.w3.org/1999/xlink" x="0px" y="0px"
	 width="100%" viewBox="0 0 512 512" enable-background="new 0 0 512 512" xml:space="preserve">
<path fill="#000000" opacity="1.000000" stroke="none" 
	d="
M236.000000,1.000000 
	C249.354233,1.000000 262.708466,1.000000 276.683655,1.396090 
	C287.174622,3.161754 297.137360,4.058447 306.900330,5.973531 
	C412.840515,26.754520 494.468842,112.649948 510.209198,219.667496 
	C511.060638,225.456573 512.066162,231.223022 513.000000,237.000000 
	C513.000000,250.354233 513.000000,263.708466 512.620850,277.694153 
	C507.499939,329.075592 490.114044,374.950195 458.305756,414.890625 
	C416.105042,467.880432 361.452576,499.871277 294.331207,510.195923 
	C288.221588,511.135712 282.110443,512.065491 276.000000,513.000000 
	C263.312439,513.000000 250.624878,513.000000 237.273254,512.630249 
	C223.478607,510.158539 210.140121,508.920441 197.250381,505.817902 
	C95.247246,481.265808 19.286798,398.022949 3.774385,294.351227 
	C2.956448,288.884827 1.929592,283.449677 0.999999,278.000000 
	C1.000000,263.979095 1.000000,249.958206 1.389207,235.326569 
	C3.644330,223.068558 4.811727,211.258301 7.485269,199.799454 
	C31.637442,96.282784 114.450806,19.934296 219.705429,3.766156 
	C225.150116,2.929798 230.569061,1.925898 236.000000,1.000000 
M401.962219,183.575012 
	C401.579559,183.029968 401.196655,182.485077 400.814240,181.939850 
	C380.673370,153.223236 337.540619,142.215912 308.279602,165.409927 
	C306.970459,166.447662 304.226624,166.568787 302.487823,166.029984 
	C288.460449,161.683334 274.361053,158.200287 259.509857,157.941925 
	C243.116898,157.656738 227.408539,160.715927 212.062088,166.075439 
	C209.260071,167.054001 207.288055,166.599045 204.781952,165.035233 
	C199.453735,161.710373 194.037170,158.191696 188.174301,156.114258 
	C153.853546,143.953079 112.946342,166.242493 103.277138,202.962982 
	C100.435875,213.753189 100.369408,225.336426 99.587708,236.594864 
	C97.279686,269.835693 95.084877,303.086395 93.182701,336.352509 
	C92.259056,352.505615 103.931396,366.769073 120.072075,369.080505 
	C127.760956,370.181580 135.690964,369.503387 143.493546,369.949738 
	C146.941910,370.146973 148.815933,368.907135 150.613419,366.004883 
	C165.062683,342.674622 179.775330,319.507233 194.172531,296.145294 
	C196.215744,292.829865 198.384796,291.866302 202.116943,291.880676 
	C238.781250,292.021851 275.446533,292.021240 312.110840,291.878204 
	C315.682312,291.864258 317.755157,292.809814 319.671936,295.926178 
	C331.173340,314.625488 342.888214,333.193939 354.591217,351.768616 
	C358.391388,357.800140 361.104431,366.126862 366.617096,369.026031 
	C372.377197,372.055389 380.910126,369.813049 388.230927,369.872589 
	C388.563965,369.875305 388.897400,369.856750 389.230316,369.841797 
	C405.208557,369.126068 418.129669,358.421722 420.134644,342.533173 
	C421.223572,333.904327 420.018860,324.949554 419.506287,316.161774 
	C417.662964,284.561157 415.557312,252.975510 413.794922,221.370590 
	C413.046967,207.957733 409.803436,195.463226 401.962219,183.575012 
z"/>
<path fill="none" opacity="1.000000" stroke="none" 
	d="
M276.468658,513.000000 
	C282.110443,512.065491 288.221588,511.135712 294.331207,510.195923 
	C361.452576,499.871277 416.105042,467.880432 458.305756,414.890625 
	C490.114044,374.950195 507.499939,329.075592 512.620850,278.162781 
	C513.000000,356.260681 513.000000,434.521362 513.000000,513.000000 
	C434.312561,513.000000 355.624939,513.000000 276.468658,513.000000 
z"/>
<path fill="none" opacity="1.000000" stroke="none" 
	d="
M0.999999,278.468658 
	C1.929592,283.449677 2.956448,288.884827 3.774385,294.351227 
	C19.286798,398.022949 95.247246,481.265808 197.250381,505.817902 
	C210.140121,508.920441 223.478607,510.158539 236.804596,512.630249 
	C158.406448,513.000000 79.812904,513.000000 1.000000,513.000000 
	C1.000000,434.979248 1.000000,356.958282 0.999999,278.468658 
z"/>
<path fill="none" opacity="1.000000" stroke="none" 
	d="
M513.000000,236.531342 
	C512.066162,231.223022 511.060638,225.456573 510.209198,219.667496 
	C494.468842,112.649948 412.840515,26.754520 306.900330,5.973531 
	C297.137360,4.058447 287.174622,3.161754 277.152313,1.396090 
	C355.593719,1.000000 434.187408,1.000000 513.000000,1.000000 
	C513.000000,79.354095 513.000000,157.708389 513.000000,236.531342 
z"/>
<path fill="none" opacity="1.000000" stroke="none" 
	d="
M235.531342,1.000000 
	C230.569061,1.925898 225.150116,2.929798 219.705429,3.766156 
	C114.450806,19.934296 31.637442,96.282784 7.485269,199.799454 
	C4.811727,211.258301 3.644330,223.068558 1.389207,234.857910 
	C1.000000,157.072800 1.000000,79.145592 1.000000,1.000000 
	C79.020760,1.000000 157.041718,1.000000 235.531342,1.000000 
z"/>
<path fill="#FEFEFE" opacity="1.000000" stroke="none" 
	d="
M402.142822,183.887909 
	C409.803436,195.463226 413.046967,207.957733 413.794922,221.370590 
	C415.557312,252.975510 417.662964,284.561157 419.506287,316.161774 
	C420.018860,324.949554 421.223572,333.904327 420.134644,342.533173 
	C418.129669,358.421722 405.208557,369.126068 389.230316,369.841797 
	C388.897400,369.856750 388.563965,369.875305 388.230927,369.872589 
	C380.910126,369.813049 372.377197,372.055389 366.617096,369.026031 
	C361.104431,366.126862 358.391388,357.800140 354.591217,351.768616 
	C342.888214,333.193939 331.173340,314.625488 319.671936,295.926178 
	C317.755157,292.809814 315.682312,291.864258 312.110840,291.878204 
	C275.446533,292.021240 238.781250,292.021851 202.116943,291.880676 
	C198.384796,291.866302 196.215744,292.829865 194.172531,296.145294 
	C179.775330,319.507233 165.062683,342.674622 150.613419,366.004883 
	C148.815933,368.907135 146.941910,370.146973 143.493546,369.949738 
	C135.690964,369.503387 127.760956,370.181580 120.072075,369.080505 
	C103.931396,366.769073 92.259056,352.505615 93.182701,336.352509 
	C95.084877,303.086395 97.279686,269.835693 99.587708,236.594864 
	C100.369408,225.336426 100.435875,213.753189 103.277138,202.962982 
	C112.946342,166.242493 153.853546,143.953079 188.174301,156.114258 
	C194.037170,158.191696 199.453735,161.710373 204.781952,165.035233 
	C207.288055,166.599045 209.260071,167.054001 212.062088,166.075439 
	C227.408539,160.715927 243.116898,157.656738 259.509857,157.941925 
	C274.361053,158.200287 288.460449,161.683334 302.487823,166.029984 
	C304.226624,166.568787 306.970459,166.447662 308.279602,165.409927 
	C337.540619,142.215912 380.673370,153.223236 400.814240,181.939850 
	C401.196655,182.485077 401.579559,183.029968 402.142822,183.887909 
M155.399231,266.164734 
	C157.651489,266.164734 159.903748,266.164734 162.494110,266.164734 
	C162.494110,258.903931 162.494110,252.283966 162.494110,245.187454 
	C169.580185,245.187454 176.327362,245.187454 183.257568,245.187454 
	C183.257568,237.611160 183.257568,230.521240 183.257568,223.014450 
	C176.269653,223.014450 169.513168,223.014450 162.361633,223.014450 
	C162.361633,215.841019 162.361633,209.075394 162.361633,202.262878 
	C154.869186,202.262878 147.783463,202.262878 140.245239,202.262878 
	C140.245239,209.215103 140.245239,215.947601 140.245239,223.130585 
	C133.068573,223.130585 126.332191,223.130585 119.496719,223.130585 
	C119.496719,230.665268 119.496719,237.729553 119.496719,245.274414 
	C126.509880,245.274414 133.255096,245.274414 140.478210,245.274414 
	C140.478210,252.485107 140.478210,259.218018 140.478210,266.164734 
	C145.457855,266.164734 149.943466,266.164734 155.399231,266.164734 
M325.348328,245.457901 
	C334.500671,248.451416 346.147034,239.589294 343.616516,227.833649 
	C342.052673,220.568573 335.776093,215.776184 328.497009,215.950668 
	C321.524200,216.117813 315.406677,221.315903 314.113342,228.172577 
	C312.729919,235.506760 316.784393,242.084793 325.348328,245.457901 
M347.978668,220.798965 
	C354.079895,222.811432 359.507294,221.574234 363.952087,217.011810 
	C367.965698,212.892075 369.148376,207.836853 367.471039,202.307709 
	C365.427277,195.570663 359.424194,191.461365 352.388184,191.767639 
	C345.684753,192.059433 340.332672,196.551651 338.584686,203.353531 
	C336.831604,210.175247 339.976318,216.354385 347.978668,220.798965 
M360.952545,242.326355 
	C354.962280,239.040512 349.135376,239.243301 343.804535,243.591690 
	C339.221985,247.329681 337.197052,252.268707 338.505005,258.183990 
	C340.005280,264.969147 345.510834,269.690460 352.069580,270.086731 
	C358.753601,270.490570 364.593689,266.862671 367.048309,260.781860 
	C369.710602,254.186737 367.809570,247.956985 360.952545,242.326355 
M375.040924,245.820206 
	C385.393402,246.233215 392.627380,239.856125 392.385315,230.530334 
	C392.162476,221.944473 384.873688,215.374161 376.239502,215.975967 
	C369.146332,216.470383 363.384552,222.106400 362.489838,229.425552 
	C361.603394,236.677231 366.022156,242.765854 375.040924,245.820206 
z"/>
<path fill="#030303" opacity="1.000000" stroke="none" 
	d="
M154.914154,266.164734 
	C149.943466,266.164734 145.457855,266.164734 140.478210,266.164734 
	C140.478210,259.218018 140.478210,252.485107 140.478210,245.274414 
	C133.255096,245.274414 126.509880,245.274414 119.496719,245.274414 
	C119.496719,237.729553 119.496719,230.665268 119.496719,223.130585 
	C126.332191,223.130585 133.068573,223.130585 140.245239,223.130585 
	C140.245239,215.947601 140.245239,209.215103 140.245239,202.262878 
	C147.783463,202.262878 154.869186,202.262878 162.361633,202.262878 
	C162.361633,209.075394 162.361633,215.841019 162.361633,223.014450 
	C169.513168,223.014450 176.269653,223.014450 183.257568,223.014450 
	C183.257568,230.521240 183.257568,237.611160 183.257568,245.187454 
	C176.327362,245.187454 169.580185,245.187454 162.494110,245.187454 
	C162.494110,252.283966 162.494110,258.903931 162.494110,266.164734 
	C159.903748,266.164734 157.651489,266.164734 154.914154,266.164734 
z"/>
<path fill="#040404" opacity="1.000000" stroke="none" 
	d="
M324.972107,245.318726 
	C316.784393,242.084793 312.729919,235.506760 314.113342,228.172577 
	C315.406677,221.315903 321.524200,216.117813 328.497009,215.950668 
	C335.776093,215.776184 342.052673,220.568573 343.616516,227.833649 
	C346.147034,239.589294 334.500671,248.451416 324.972107,245.318726 
z"/>
<path fill="#040404" opacity="1.000000" stroke="none" 
	d="
M347.633911,220.628159 
	C339.976318,216.354385 336.831604,210.175247 338.584686,203.353531 
	C340.332672,196.551651 345.684753,192.059433 352.388184,191.767639 
	C359.424194,191.461365 365.427277,195.570663 367.471039,202.307709 
	C369.148376,207.836853 367.965698,212.892075 363.952087,217.011810 
	C359.507294,221.574234 354.079895,222.811432 347.633911,220.628159 
z"/>
<path fill="#040404" opacity="1.000000" stroke="none" 
	d="
M361.253296,242.551544 
	C367.809570,247.956985 369.710602,254.186737 367.048309,260.781860 
	C364.593689,266.862671 358.753601,270.490570 352.069580,270.086731 
	C345.510834,269.690460 340.005280,264.969147 338.505005,258.183990 
	C337.197052,252.268707 339.221985,247.329681 343.804535,243.591690 
	C349.135376,239.243301 354.962280,239.040512 361.253296,242.551544 
z"/>
<path fill="#040404" opacity="1.000000" stroke="none" 
	d="
M374.645020,245.724365 
	C366.022156,242.765854 361.603394,236.677231 362.489838,229.425552 
	C363.384552,222.106400 369.146332,216.470383 376.239502,215.975967 
	C384.873688,215.374161 392.162476,221.944473 392.385315,230.530334 
	C392.627380,239.856125 385.393402,246.233215 374.645020,245.724365 
z"/>
</svg>