<svg version="1.1" id="Layer_1" xmlns="http://www.w3.org/2000/svg" xmlns:xlink="http://www.w3.org/1999/xlink" x="0px" y="0px"
	 width="100%" viewBox="0 0 512 512" enable-background="new 0 0 512 512" xml:space="preserve">
<path fill="#000000" opacity="1.000000" stroke="none" 
	d="
M236.000000,0.999999 
	C249.020889,1.000000 262.041779,1.000000 275.692963,1.395391 
	C300.511322,3.509299 324.190552,8.131129 346.611969,17.266302 
	C438.667938,54.772717 493.583557,122.436874 510.310791,220.693329 
	C511.235321,226.124100 512.104858,231.564224 513.000000,237.000000 
	C513.000000,250.354233 513.000000,263.708466 512.613403,277.680115 
	C509.977386,291.722076 508.536194,305.341736 505.350159,318.540192 
	C480.486938,421.538025 392.903381,498.569061 286.879089,511.164307 
	C283.231506,511.597626 279.625427,512.380188 276.000000,513.000000 
	C262.979095,513.000000 249.958206,513.000000 236.315002,512.611084 
	C225.497604,510.749664 215.192963,509.806519 205.124313,507.722992 
	C99.710197,485.909210 19.353758,400.439728 3.721938,293.799225 
	C2.947120,288.513397 1.913248,283.265533 1.000001,278.000000 
	C1.000000,264.312439 1.000000,250.624878 1.388936,236.315063 
	C3.929061,222.586151 5.369132,209.315674 8.344398,196.398819 
	C31.311815,96.687729 118.036644,17.828924 219.702087,3.777391 
	C225.158447,3.023251 230.568436,1.933514 236.000000,0.999999 
M221.500092,203.193695 
	C203.468765,203.193695 185.437439,203.193695 166.661224,203.193695 
	C181.031372,182.189758 194.830734,162.029144 208.615936,141.858856 
	C210.210510,139.525726 211.883209,137.225449 213.245850,134.758667 
	C216.035248,129.709000 215.294006,123.610367 211.594467,119.428970 
	C207.904007,115.257812 201.813049,113.699799 196.611664,116.500038 
	C193.698593,118.068321 191.032486,120.692696 189.128799,123.445442 
	C171.523178,148.903091 154.159225,174.527924 136.533752,199.971680 
	C135.228745,201.855560 132.602982,203.388092 130.316513,203.934570 
	C117.986687,206.881485 109.289871,214.069138 105.319397,226.001465 
	C101.296036,238.092728 103.861023,249.185181 112.318993,258.962921 
	C114.355820,261.317535 116.214844,264.405396 116.736626,267.403046 
	C123.156174,304.284149 129.304184,341.212463 135.539474,378.125702 
	C138.128708,393.454010 144.652634,398.986115 160.072540,398.986481 
	C223.904465,398.988007 287.736389,398.987640 351.568329,398.985474 
	C367.271088,398.984955 373.637085,393.402954 376.255829,377.768433 
	C382.494934,340.519409 388.795898,303.280487 395.236420,266.065979 
	C395.625854,263.815918 397.056335,261.429199 398.675201,259.757538 
	C415.579132,242.301865 409.338074,213.065735 386.196350,205.757874 
	C378.349152,203.279831 373.858246,199.050308 370.099487,192.698975 
	C369.169098,191.126907 368.040405,189.672424 367.007080,188.161011 
	C351.980103,166.181274 336.976013,144.185837 321.913971,122.230156 
	C317.384216,115.627266 310.448029,113.415932 304.217651,116.383865 
	C296.810974,119.912140 294.687195,129.281479 299.822327,136.846909 
	C313.747345,157.362091 327.786774,177.799591 341.769775,198.275482 
	C342.735718,199.689926 343.610138,201.166870 344.893829,203.193695 
	C303.462769,203.193695 262.981445,203.193695 221.500092,203.193695 
z"/>
<path fill="none" opacity="1.000000" stroke="none" 
	d="
M276.468658,513.000000 
	C279.625427,512.380188 283.231506,511.597626 286.879089,511.164307 
	C392.903381,498.569061 480.486938,421.538025 505.350159,318.540192 
	C508.536194,305.341736 509.977386,291.722076 512.613403,278.148743 
	C513.000000,356.260681 513.000000,434.521362 513.000000,513.000000 
	C434.312561,513.000000 355.624939,513.000000 276.468658,513.000000 
z"/>
<path fill="none" opacity="1.000000" stroke="none" 
	d="
M513.000000,236.531342 
	C512.104858,231.564224 511.235321,226.124100 510.310791,220.693329 
	C493.583557,122.436874 438.667938,54.772717 346.611969,17.266302 
	C324.190552,8.131129 300.511322,3.509299 276.161621,1.395391 
	C354.926910,1.000000 433.853790,1.000000 513.000000,1.000000 
	C513.000000,79.354088 513.000000,157.708389 513.000000,236.531342 
z"/>
<path fill="none" opacity="1.000000" stroke="none" 
	d="
M1.000001,278.468658 
	C1.913248,283.265533 2.947120,288.513397 3.721938,293.799225 
	C19.353758,400.439728 99.710197,485.909210 205.124313,507.722992 
	C215.192963,509.806519 225.497604,510.749664 235.846344,512.611084 
	C157.739624,513.000000 79.479256,513.000000 1.000000,513.000000 
	C1.000000,434.979248 1.000000,356.958282 1.000001,278.468658 
z"/>
<path fill="none" opacity="1.000000" stroke="none" 
	d="
M235.531342,0.999999 
	C230.568436,1.933514 225.158447,3.023251 219.702087,3.777391 
	C118.036644,17.828924 31.311815,96.687729 8.344398,196.398819 
	C5.369132,209.315674 3.929061,222.586151 1.388936,235.846405 
	C1.000000,157.739624 1.000000,79.479240 1.000000,1.000000 
	C79.020760,1.000000 157.041718,1.000000 235.531342,0.999999 
z"/>
<path fill="#FDFDFD" opacity="1.000000" stroke="none" 
	d="
M222.000107,203.193695 
	C262.981445,203.193695 303.462769,203.193695 344.893829,203.193695 
	C343.610138,201.166870 342.735718,199.689926 341.769775,198.275482 
	C327.786774,177.799591 313.747345,157.362091 299.822327,136.846909 
	C294.687195,129.281479 296.810974,119.912140 304.217651,116.383865 
	C310.448029,113.415932 317.384216,115.627266 321.913971,122.230156 
	C336.976013,144.185837 351.980103,166.181274 367.007080,188.161011 
	C368.040405,189.672424 369.169098,191.126907 370.099487,192.698975 
	C373.858246,199.050308 378.349152,203.279831 386.196350,205.757874 
	C409.338074,213.065735 415.579132,242.301865 398.675201,259.757538 
	C397.056335,261.429199 395.625854,263.815918 395.236420,266.065979 
	C388.795898,303.280487 382.494934,340.519409 376.255829,377.768433 
	C373.637085,393.402954 367.271088,398.984955 351.568329,398.985474 
	C287.736389,398.987640 223.904465,398.988007 160.072540,398.986481 
	C144.652634,398.986115 138.128708,393.454010 135.539474,378.125702 
	C129.304184,341.212463 123.156174,304.284149 116.736626,267.403046 
	C116.214844,264.405396 114.355820,261.317535 112.318993,258.962921 
	C103.861023,249.185181 101.296036,238.092728 105.319397,226.001465 
	C109.289871,214.069138 117.986687,206.881485 130.316513,203.934570 
	C132.602982,203.388092 135.228745,201.855560 136.533752,199.971680 
	C154.159225,174.527924 171.523178,148.903091 189.128799,123.445442 
	C191.032486,120.692696 193.698593,118.068321 196.611664,116.500038 
	C201.813049,113.699799 207.904007,115.257812 211.594467,119.428970 
	C215.294006,123.610367 216.035248,129.709000 213.245850,134.758667 
	C211.883209,137.225449 210.210510,139.525726 208.615936,141.858856 
	C194.830734,162.029144 181.031372,182.189758 166.661224,203.193695 
	C185.437439,203.193695 203.468765,203.193695 222.000107,203.193695 
M204.956467,300.500000 
	C204.955551,288.845093 204.920746,277.190063 204.970490,265.535370 
	C204.990311,260.895447 203.290512,257.107391 199.682358,254.249619 
	C195.543884,250.971832 190.925354,250.176208 186.157150,252.592621 
	C180.559296,255.429489 178.224808,260.263733 178.233551,266.470276 
	C178.275314,296.107025 178.222824,325.743896 178.268997,355.380646 
	C178.283264,364.535004 183.851120,370.906067 191.606934,370.925720 
	C199.381470,370.945435 204.933624,364.551361 204.947662,355.445648 
	C204.975403,337.463806 204.956238,319.481873 204.956467,300.500000 
M264.078003,254.326935 
	C259.728241,251.020996 255.053925,250.122650 250.107376,252.787186 
	C244.952728,255.563797 242.651627,259.956207 242.667221,265.867004 
	C242.746826,296.018646 242.677246,326.170654 242.757751,356.322296 
	C242.763809,358.587067 243.096664,361.053345 244.034561,363.074738 
	C246.689972,368.797791 252.770035,371.841644 258.315338,370.666809 
	C264.634308,369.328033 269.073151,363.863342 269.086060,356.936310 
	C269.142944,326.451385 269.257080,295.964661 268.914703,265.483490 
	C268.874542,261.910126 266.141571,258.367004 264.078003,254.326935 
M312.570496,253.950073 
	C308.646332,256.803162 306.896149,260.633728 306.904907,265.503113 
	C306.959930,295.989197 306.898102,326.475555 306.957062,356.961639 
	C306.971924,364.644531 312.613190,370.642975 319.723419,370.902924 
	C326.963684,371.167603 333.270355,365.222382 333.308655,357.299438 
	C333.457550,326.480927 333.528198,295.660004 333.287537,264.842621 
	C333.201324,253.800491 322.939941,248.287491 312.570496,253.950073 
z"/>
<path fill="#040404" opacity="1.000000" stroke="none" 
	d="
M204.956467,301.000000 
	C204.956238,319.481873 204.975403,337.463806 204.947662,355.445648 
	C204.933624,364.551361 199.381470,370.945435 191.606934,370.925720 
	C183.851120,370.906067 178.283264,364.535004 178.268997,355.380646 
	C178.222824,325.743896 178.275314,296.107025 178.233551,266.470276 
	C178.224808,260.263733 180.559296,255.429489 186.157150,252.592621 
	C190.925354,250.176208 195.543884,250.971832 199.682358,254.249619 
	C203.290512,257.107391 204.990311,260.895447 204.970490,265.535370 
	C204.920746,277.190063 204.955551,288.845093 204.956467,301.000000 
z"/>
<path fill="#010101" opacity="1.000000" stroke="none" 
	d="
M264.367462,254.568390 
	C266.141571,258.367004 268.874542,261.910126 268.914703,265.483490 
	C269.257080,295.964661 269.142944,326.451385 269.086060,356.936310 
	C269.073151,363.863342 264.634308,369.328033 258.315338,370.666809 
	C252.770035,371.841644 246.689972,368.797791 244.034561,363.074738 
	C243.096664,361.053345 242.763809,358.587067 242.757751,356.322296 
	C242.677246,326.170654 242.746826,296.018646 242.667221,265.867004 
	C242.651627,259.956207 244.952728,255.563797 250.107376,252.787186 
	C255.053925,250.122650 259.728241,251.020996 264.367462,254.568390 
z"/>
<path fill="#010101" opacity="1.000000" stroke="none" 
	d="
M312.875305,253.725739 
	C322.939941,248.287491 333.201324,253.800491 333.287537,264.842621 
	C333.528198,295.660004 333.457550,326.480927 333.308655,357.299438 
	C333.270355,365.222382 326.963684,371.167603 319.723419,370.902924 
	C312.613190,370.642975 306.971924,364.644531 306.957062,356.961639 
	C306.898102,326.475555 306.959930,295.989197 306.904907,265.503113 
	C306.896149,260.633728 308.646332,256.803162 312.875305,253.725739 
z"/>
</svg>