<svg version="1.1" id="Layer_1" xmlns="http://www.w3.org/2000/svg" xmlns:xlink="http://www.w3.org/1999/xlink" x="0px" y="0px"
	 width="100%" viewBox="0 0 512 512" enable-background="new 0 0 512 512" xml:space="preserve">
<path fill="#010101" opacity="1.000000" stroke="none" 
	d="
M276.000000,513.000000 
	C262.979095,513.000000 249.958206,513.000000 236.309662,512.619873 
	C191.487122,507.997314 150.498917,494.364227 113.875618,469.091339 
	C52.351219,426.634705 15.647170,368.293091 3.845968,294.391510 
	C2.919661,288.590790 1.949683,282.796997 1.000001,277.000000 
	C1.000000,263.645782 1.000000,250.291550 1.379628,236.306946 
	C4.015017,222.254486 5.336089,208.595047 8.674873,195.448013 
	C34.645790,93.183075 116.056831,19.606491 220.174240,3.737251 
	C225.465637,2.930751 230.725464,1.917166 236.000000,1.000001 
	C249.354233,1.000000 262.708466,1.000000 276.683716,1.396015 
	C287.009338,3.144913 296.793976,4.078461 306.406128,5.915005 
	C412.172485,26.123255 494.609222,112.676743 510.203033,219.671677 
	C511.046753,225.460693 512.063721,231.224472 513.000000,237.000000 
	C513.000000,250.354233 513.000000,263.708466 512.618042,277.687378 
	C510.275055,297.363098 507.309387,316.276733 500.925964,334.366669 
	C466.140167,432.945526 397.339691,491.715332 294.304382,510.138397 
	C288.226685,511.225128 282.102539,512.052124 276.000000,513.000000 
M307.317963,401.452759 
	C323.297546,401.030548 339.381897,401.619110 355.234863,399.975647 
	C388.192963,396.558807 413.324005,369.958069 416.772949,336.390472 
	C420.067810,304.322266 399.708008,272.976105 368.490540,263.067963 
	C360.250488,260.452637 351.422852,259.688538 342.733978,258.049652 
	C351.241821,248.472061 360.129669,238.627106 368.839294,228.626923 
	C384.637878,210.487335 390.743439,189.425018 385.362915,165.979263 
	C378.918152,137.896072 361.146973,119.465706 333.220886,112.597443 
	C305.470245,105.772324 281.525818,114.040260 262.466980,135.361237 
	C224.938126,177.344452 187.611511,219.508423 150.092117,261.500153 
	C148.097427,263.732605 145.320297,265.656738 142.525345,266.722504 
	C116.579193,276.616150 98.055176,301.983826 97.071220,329.348969 
	C95.574097,370.985931 127.414825,403.898468 169.420624,403.515839 
	C215.067612,403.100067 260.709869,402.166412 307.317963,401.452759 
z"/>
<path fill="none" opacity="1.000000" stroke="none" 
	d="
M1.000001,277.468658 
	C1.949683,282.796997 2.919661,288.590790 3.845968,294.391510 
	C15.647170,368.293091 52.351219,426.634705 113.875618,469.091339 
	C150.498917,494.364227 191.487122,507.997314 235.841003,512.619873 
	C157.739471,513.000000 79.478951,513.000000 1.000000,513.000000 
	C1.000000,434.645905 1.000000,356.291626 1.000001,277.468658 
z"/>
<path fill="none" opacity="1.000000" stroke="none" 
	d="
M276.468658,513.000000 
	C282.102539,512.052124 288.226685,511.225128 294.304382,510.138397 
	C397.339691,491.715332 466.140167,432.945526 500.925964,334.366669 
	C507.309387,316.276733 510.275055,297.363098 512.618042,278.156067 
	C513.000000,356.260681 513.000000,434.521362 513.000000,513.000000 
	C434.312561,513.000000 355.624939,513.000000 276.468658,513.000000 
z"/>
<path fill="none" opacity="1.000000" stroke="none" 
	d="
M235.531342,1.000001 
	C230.725464,1.917166 225.465637,2.930751 220.174240,3.737251 
	C116.056831,19.606491 34.645790,93.183075 8.674873,195.448013 
	C5.336089,208.595047 4.015017,222.254486 1.379628,235.838287 
	C1.000000,157.739624 1.000000,79.479240 1.000000,1.000000 
	C79.020760,1.000000 157.041718,1.000000 235.531342,1.000001 
z"/>
<path fill="none" opacity="1.000000" stroke="none" 
	d="
M513.000000,236.531342 
	C512.063721,231.224472 511.046753,225.460693 510.203033,219.671677 
	C494.609222,112.676743 412.172485,26.123255 306.406128,5.915005 
	C296.793976,4.078461 287.009338,3.144913 277.152405,1.396015 
	C355.593719,1.000000 434.187408,1.000000 513.000000,1.000000 
	C513.000000,79.354095 513.000000,157.708389 513.000000,236.531342 
z"/>
<path fill="#FAFAFA" opacity="1.000000" stroke="none" 
	d="
M306.836060,401.455688 
	C260.709869,402.166412 215.067612,403.100067 169.420624,403.515839 
	C127.414825,403.898468 95.574097,370.985931 97.071220,329.348969 
	C98.055176,301.983826 116.579193,276.616150 142.525345,266.722504 
	C145.320297,265.656738 148.097427,263.732605 150.092117,261.500153 
	C187.611511,219.508423 224.938126,177.344452 262.466980,135.361237 
	C281.525818,114.040260 305.470245,105.772324 333.220886,112.597443 
	C361.146973,119.465706 378.918152,137.896072 385.362915,165.979263 
	C390.743439,189.425018 384.637878,210.487335 368.839294,228.626923 
	C360.129669,238.627106 351.241821,248.472061 342.733978,258.049652 
	C351.422852,259.688538 360.250488,260.452637 368.490540,263.067963 
	C399.708008,272.976105 420.067810,304.322266 416.772949,336.390472 
	C413.324005,369.958069 388.192963,396.558807 355.234863,399.975647 
	C339.381897,401.619110 323.297546,401.030548 306.836060,401.455688 
M243.484573,272.140533 
	C219.006119,272.515869 194.528412,272.951660 170.048965,273.245239 
	C153.771469,273.440460 139.299744,278.277039 127.253342,289.469208 
	C109.698685,305.779022 103.798180,331.650299 112.416100,354.086029 
	C121.051193,376.566467 142.598694,391.947205 166.721451,391.937927 
	C194.697388,391.927185 222.673111,391.267761 250.648575,390.864929 
	C251.090347,390.858551 251.527496,390.532288 252.181412,390.268829 
	C251.572189,351.005890 250.963211,311.757751 250.348419,272.135681 
	C248.043930,272.135681 246.246994,272.135681 243.484573,272.140533 
M321.500427,271.041870 
	C301.739014,271.041870 281.977631,271.041870 261.790100,271.041870 
	C262.427063,311.825714 263.041840,351.189514 263.648376,390.024658 
	C277.715729,390.024658 291.017792,390.136292 304.317169,389.995148 
	C319.467834,389.834381 334.630676,389.772217 349.762329,389.091217 
	C379.703705,387.743713 403.145294,364.045227 405.356812,333.365265 
	C407.449799,304.329071 386.839996,276.991547 357.842224,272.170258 
	C346.315887,270.253845 334.295471,271.309174 321.500427,271.041870 
M356.668976,225.163895 
	C357.999390,223.672821 359.364380,222.211029 360.654785,220.686111 
	C373.113098,205.964096 378.322906,189.021973 374.415344,170.092911 
	C369.518921,146.373657 355.049652,130.491302 331.666046,124.141975 
	C307.988190,117.712753 287.586823,124.660652 271.204193,142.741470 
	C253.652588,162.112427 236.420990,181.773392 219.063400,201.319946 
	C218.230042,202.258408 217.528702,203.314117 216.702560,204.398331 
	C237.125000,222.566116 257.252106,240.516510 277.479950,258.352722 
	C278.688965,259.418762 280.704803,260.071838 282.343781,260.069092 
	C295.664856,260.046600 308.989685,259.950073 322.302368,259.528381 
	C324.447144,259.460449 327.096375,258.183655 328.561829,256.591003 
	C337.917297,246.423523 347.006683,236.011230 356.668976,225.163895 
M235.797745,236.697952 
	C226.866150,228.772278 217.934555,220.846603 208.838120,212.774658 
	C194.299759,229.127365 180.028824,245.179260 164.994537,262.089783 
	C197.902100,261.563507 229.564590,261.057129 262.560455,260.529419 
	C253.142197,252.130859 244.743195,244.641205 235.797745,236.697952 
z"/>
<path fill="#FDFDFD" opacity="1.000000" stroke="none" 
	d="
M243.967316,272.138123 
	C246.246994,272.135681 248.043930,272.135681 250.348419,272.135681 
	C250.963211,311.757751 251.572189,351.005890 252.181412,390.268829 
	C251.527496,390.532288 251.090347,390.858551 250.648575,390.864929 
	C222.673111,391.267761 194.697388,391.927185 166.721451,391.937927 
	C142.598694,391.947205 121.051193,376.566467 112.416100,354.086029 
	C103.798180,331.650299 109.698685,305.779022 127.253342,289.469208 
	C139.299744,278.277039 153.771469,273.440460 170.048965,273.245239 
	C194.528412,272.951660 219.006119,272.515869 243.967316,272.138123 
z"/>
<path fill="#010101" opacity="1.000000" stroke="none" 
	d="
M322.000214,271.026703 
	C334.295471,271.309174 346.315887,270.253845 357.842224,272.170258 
	C386.839996,276.991547 407.449799,304.329071 405.356812,333.365265 
	C403.145294,364.045227 379.703705,387.743713 349.762329,389.091217 
	C334.630676,389.772217 319.467834,389.834381 304.317169,389.995148 
	C291.017792,390.136292 277.715729,390.024658 263.648376,390.024658 
	C263.041840,351.189514 262.427063,311.825714 261.790100,271.041870 
	C281.977631,271.041870 301.739014,271.041870 322.000214,271.026703 
z"/>
<path fill="#010101" opacity="1.000000" stroke="none" 
	d="
M356.426331,225.421707 
	C347.006683,236.011230 337.917297,246.423523 328.561829,256.591003 
	C327.096375,258.183655 324.447144,259.460449 322.302368,259.528381 
	C308.989685,259.950073 295.664856,260.046600 282.343781,260.069092 
	C280.704803,260.071838 278.688965,259.418762 277.479950,258.352722 
	C257.252106,240.516510 237.125000,222.566116 216.702560,204.398331 
	C217.528702,203.314117 218.230042,202.258408 219.063400,201.319946 
	C236.420990,181.773392 253.652588,162.112427 271.204193,142.741470 
	C287.586823,124.660652 307.988190,117.712753 331.666046,124.141975 
	C355.049652,130.491302 369.518921,146.373657 374.415344,170.092911 
	C378.322906,189.021973 373.113098,205.964096 360.654785,220.686111 
	C359.364380,222.211029 357.999390,223.672821 356.426331,225.421707 
z"/>
<path fill="#040404" opacity="1.000000" stroke="none" 
	d="
M236.070953,236.924744 
	C244.743195,244.641205 253.142197,252.130859 262.560455,260.529419 
	C229.564590,261.057129 197.902100,261.563507 164.994537,262.089783 
	C180.028824,245.179260 194.299759,229.127365 208.838120,212.774658 
	C217.934555,220.846603 226.866150,228.772278 236.070953,236.924744 
z"/>
</svg>