<svg version="1.1" id="Layer_1" xmlns="http://www.w3.org/2000/svg" xmlns:xlink="http://www.w3.org/1999/xlink" x="0px" y="0px"
	 width="100%" viewBox="0 0 512 512" enable-background="new 0 0 512 512" xml:space="preserve">
<path fill="#010101" opacity="1.000000" stroke="none" 
	d="
M276.000000,513.000000 
	C263.312439,513.000000 250.624878,513.000000 237.272842,512.630493 
	C223.477737,510.159546 210.139435,508.921204 197.249405,505.819763 
	C95.266350,481.281891 19.243330,397.969757 3.774362,294.352386 
	C2.958195,288.885345 1.929667,283.450073 1.000000,278.000000 
	C1.000000,263.979095 1.000000,249.958206 1.388992,235.326157 
	C3.643679,223.067780 4.810639,211.257553 7.484203,199.798828 
	C31.636822,96.282242 114.440918,19.942120 219.704285,3.765179 
	C225.149246,2.928393 230.568680,1.925539 236.000000,1.000001 
	C249.354233,1.000000 262.708466,1.000000 276.684082,1.395871 
	C287.175385,3.161256 297.138062,4.057775 306.900970,5.972930 
	C412.847198,26.756027 494.454895,112.627777 510.211304,219.663895 
	C511.063629,225.453964 512.066956,231.221817 513.000000,237.000000 
	C513.000000,250.020889 513.000000,263.041779 512.630371,276.727081 
	C511.766022,282.025208 511.406158,286.677948 510.755859,291.289734 
	C503.471375,342.949585 482.798615,388.576538 447.908844,427.351562 
	C406.684326,473.166718 355.473724,500.993622 294.354858,510.196686 
	C288.234650,511.118225 282.118195,512.064941 276.000000,513.000000 
M140.351883,205.129211 
	C176.798630,223.185379 213.263397,241.205383 249.670685,259.340790 
	C254.539032,261.765839 259.165070,261.957275 263.980255,259.570038 
	C309.496490,237.004272 355.013733,214.440506 400.533020,191.880844 
	C405.715668,189.312286 408.972839,185.370895 408.960327,179.399353 
	C408.947815,173.445831 405.745514,169.531143 400.525543,166.944656 
	C355.006012,144.389832 309.501862,121.803833 264.000854,99.211655 
	C259.361969,96.908371 254.837463,96.845642 250.141449,99.179298 
	C204.649658,121.786179 159.142517,144.362213 113.612312,166.891617 
	C108.386642,169.477417 105.110336,173.295944 105.044556,179.250427 
	C104.976067,185.450424 108.395477,189.397018 113.784782,192.021317 
	C122.439919,196.235916 131.034424,200.575027 140.351883,205.129211 
M145.085480,281.354187 
	C137.762680,277.806122 130.545563,274.013947 123.084976,270.784149 
	C116.651344,267.998901 109.601746,270.859833 106.497238,276.894897 
	C103.262573,283.183014 105.324547,290.411743 111.490211,294.258423 
	C112.612198,294.958435 113.821671,295.522736 115.009354,296.112213 
	C159.637543,318.261932 204.290436,340.362152 248.869476,362.610291 
	C254.421448,365.381134 259.447906,365.453827 264.998322,362.682129 
	C300.809692,344.798798 336.692383,327.058228 372.552399,309.272278 
	C382.226349,304.474152 391.949982,299.773132 401.559326,294.849060 
	C406.783875,292.171814 409.431641,287.648102 408.898315,281.758850 
	C408.408020,276.344879 405.542999,271.741791 400.219513,270.794006 
	C396.147247,270.068970 391.135162,270.623932 387.432434,272.433441 
	C345.349091,292.999603 303.418213,313.878632 261.516388,334.813843 
	C258.188812,336.476379 255.651871,336.323303 252.385986,334.692108 
	C216.874878,316.955963 181.283112,299.381256 145.085480,281.354187 
M349.621826,270.080017 
	C353.048523,268.396149 356.478912,266.719757 359.901215,265.027039 
	C373.601807,258.250458 387.322418,251.513824 400.987000,244.665405 
	C405.969849,242.168076 408.969086,238.141769 408.957458,232.381668 
	C408.947174,227.308960 406.577667,223.453278 402.211853,220.914520 
	C397.387054,218.108856 392.726074,219.062546 387.965363,221.427933 
	C345.725128,242.415298 303.432556,263.297333 261.219971,284.339966 
	C258.243134,285.823883 256.015045,285.965210 252.969498,284.438660 
	C222.831024,269.332336 192.603653,254.403290 162.395370,239.436371 
	C149.894196,233.242584 137.436615,226.956482 124.848900,220.943283 
	C116.182976,216.803558 107.227440,220.952255 105.252892,229.682846 
	C103.823372,236.003540 107.015068,241.609802 114.186699,245.168655 
	C159.108978,267.460785 204.065506,289.684143 248.937271,312.077454 
	C254.711029,314.958862 259.889221,314.721954 265.527985,311.896454 
	C293.293274,297.983490 321.135864,284.224762 349.621826,270.080017 
M138.325180,358.172485 
	C174.774734,376.257294 211.279373,394.232666 247.623444,412.526978 
	C254.224930,415.849915 259.904999,415.816589 266.464478,412.519470 
	C300.738708,395.291809 335.161011,378.358765 369.527344,361.314209 
	C380.240112,356.001068 391.006317,350.789551 401.616913,345.278931 
	C407.281189,342.337189 409.864288,336.762604 408.834625,331.181488 
	C407.820099,325.682281 403.477356,320.864471 397.746979,320.570862 
	C394.160828,320.387146 390.168182,321.544708 386.878906,323.160858 
	C344.993744,343.740753 303.183411,364.473572 261.427429,385.314575 
	C258.261810,386.894592 255.900528,386.932465 252.721268,385.347321 
	C210.809097,364.450562 168.841202,343.664856 126.805046,323.018768 
	C123.655960,321.472076 119.840416,320.361938 116.405205,320.525970 
	C110.730820,320.796875 106.272636,325.579498 105.181915,331.031433 
	C104.068321,336.597717 106.667427,342.265625 112.247223,345.204559 
	C120.616531,349.612823 129.153076,353.703552 138.325180,358.172485 
z"/>
<path fill="none" opacity="1.000000" stroke="none" 
	d="
M276.468658,513.000000 
	C282.118195,512.064941 288.234650,511.118225 294.354858,510.196686 
	C355.473724,500.993622 406.684326,473.166718 447.908844,427.351562 
	C482.798615,388.576538 503.471375,342.949585 510.755859,291.289734 
	C511.406158,286.677948 511.766022,282.025208 512.630371,277.195740 
	C513.000000,355.593842 513.000000,434.187714 513.000000,513.000000 
	C434.312561,513.000000 355.624939,513.000000 276.468658,513.000000 
z"/>
<path fill="none" opacity="1.000000" stroke="none" 
	d="
M1.000000,278.468658 
	C1.929667,283.450073 2.958195,288.885345 3.774362,294.352386 
	C19.243330,397.969757 95.266350,481.281891 197.249405,505.819763 
	C210.139435,508.921204 223.477737,510.159546 236.804184,512.630493 
	C158.406448,513.000000 79.812904,513.000000 1.000000,513.000000 
	C1.000000,434.979248 1.000000,356.958282 1.000000,278.468658 
z"/>
<path fill="none" opacity="1.000000" stroke="none" 
	d="
M235.531342,1.000001 
	C230.568680,1.925539 225.149246,2.928393 219.704285,3.765179 
	C114.440918,19.942120 31.636822,96.282242 7.484203,199.798828 
	C4.810639,211.257553 3.643679,223.067780 1.388992,234.857498 
	C1.000000,157.072800 1.000000,79.145592 1.000000,1.000000 
	C79.020760,1.000000 157.041718,1.000000 235.531342,1.000001 
z"/>
<path fill="none" opacity="1.000000" stroke="none" 
	d="
M513.000000,236.531342 
	C512.066956,231.221817 511.063629,225.453964 510.211304,219.663895 
	C494.454895,112.627777 412.847198,26.756027 306.900970,5.972930 
	C297.138062,4.057775 287.175385,3.161256 277.152710,1.395871 
	C355.593719,1.000000 434.187408,1.000000 513.000000,1.000000 
	C513.000000,79.354095 513.000000,157.708389 513.000000,236.531342 
z"/>
<path fill="#FEFEFE" opacity="1.000000" stroke="none" 
	d="
M140.003220,204.995361 
	C131.034424,200.575027 122.439919,196.235916 113.784782,192.021317 
	C108.395477,189.397018 104.976067,185.450424 105.044556,179.250427 
	C105.110336,173.295944 108.386642,169.477417 113.612312,166.891617 
	C159.142517,144.362213 204.649658,121.786179 250.141449,99.179298 
	C254.837463,96.845642 259.361969,96.908371 264.000854,99.211655 
	C309.501862,121.803833 355.006012,144.389832 400.525543,166.944656 
	C405.745514,169.531143 408.947815,173.445831 408.960327,179.399353 
	C408.972839,185.370895 405.715668,189.312286 400.533020,191.880844 
	C355.013733,214.440506 309.496490,237.004272 263.980255,259.570038 
	C259.165070,261.957275 254.539032,261.765839 249.670685,259.340790 
	C213.263397,241.205383 176.798630,223.185379 140.003220,204.995361 
z"/>
<path fill="#FDFDFD" opacity="1.000000" stroke="none" 
	d="
M145.399399,281.558350 
	C181.283112,299.381256 216.874878,316.955963 252.385986,334.692108 
	C255.651871,336.323303 258.188812,336.476379 261.516388,334.813843 
	C303.418213,313.878632 345.349091,292.999603 387.432434,272.433441 
	C391.135162,270.623932 396.147247,270.068970 400.219513,270.794006 
	C405.542999,271.741791 408.408020,276.344879 408.898315,281.758850 
	C409.431641,287.648102 406.783875,292.171814 401.559326,294.849060 
	C391.949982,299.773132 382.226349,304.474152 372.552399,309.272278 
	C336.692383,327.058228 300.809692,344.798798 264.998322,362.682129 
	C259.447906,365.453827 254.421448,365.381134 248.869476,362.610291 
	C204.290436,340.362152 159.637543,318.261932 115.009354,296.112213 
	C113.821671,295.522736 112.612198,294.958435 111.490211,294.258423 
	C105.324547,290.411743 103.262573,283.183014 106.497238,276.894897 
	C109.601746,270.859833 116.651344,267.998901 123.084976,270.784149 
	C130.545563,274.013947 137.762680,277.806122 145.399399,281.558350 
z"/>
<path fill="#FDFDFD" opacity="1.000000" stroke="none" 
	d="
M349.286499,270.245789 
	C321.135864,284.224762 293.293274,297.983490 265.527985,311.896454 
	C259.889221,314.721954 254.711029,314.958862 248.937271,312.077454 
	C204.065506,289.684143 159.108978,267.460785 114.186699,245.168655 
	C107.015068,241.609802 103.823372,236.003540 105.252892,229.682846 
	C107.227440,220.952255 116.182976,216.803558 124.848900,220.943283 
	C137.436615,226.956482 149.894196,233.242584 162.395370,239.436371 
	C192.603653,254.403290 222.831024,269.332336 252.969498,284.438660 
	C256.015045,285.965210 258.243134,285.823883 261.219971,284.339966 
	C303.432556,263.297333 345.725128,242.415298 387.965363,221.427933 
	C392.726074,219.062546 397.387054,218.108856 402.211853,220.914520 
	C406.577667,223.453278 408.947174,227.308960 408.957458,232.381668 
	C408.969086,238.141769 405.969849,242.168076 400.987000,244.665405 
	C387.322418,251.513824 373.601807,258.250458 359.901215,265.027039 
	C356.478912,266.719757 353.048523,268.396149 349.286499,270.245789 
z"/>
<path fill="#FDFDFD" opacity="1.000000" stroke="none" 
	d="
M137.971832,358.050903 
	C129.153076,353.703552 120.616531,349.612823 112.247223,345.204559 
	C106.667427,342.265625 104.068321,336.597717 105.181915,331.031433 
	C106.272636,325.579498 110.730820,320.796875 116.405205,320.525970 
	C119.840416,320.361938 123.655960,321.472076 126.805046,323.018768 
	C168.841202,343.664856 210.809097,364.450562 252.721268,385.347321 
	C255.900528,386.932465 258.261810,386.894592 261.427429,385.314575 
	C303.183411,364.473572 344.993744,343.740753 386.878906,323.160858 
	C390.168182,321.544708 394.160828,320.387146 397.746979,320.570862 
	C403.477356,320.864471 407.820099,325.682281 408.834625,331.181488 
	C409.864288,336.762604 407.281189,342.337189 401.616913,345.278931 
	C391.006317,350.789551 380.240112,356.001068 369.527344,361.314209 
	C335.161011,378.358765 300.738708,395.291809 266.464478,412.519470 
	C259.904999,415.816589 254.224930,415.849915 247.623444,412.526978 
	C211.279373,394.232666 174.774734,376.257294 137.971832,358.050903 
z"/>
</svg>