<svg version="1.1" id="Layer_1" xmlns="http://www.w3.org/2000/svg" xmlns:xlink="http://www.w3.org/1999/xlink" x="0px" y="0px"
	 width="100%" viewBox="0 0 512 512" enable-background="new 0 0 512 512" xml:space="preserve">
<path fill="#010101" opacity="1.000000" stroke="none" 
	d="
M513.000000,237.000000 
	C513.000000,250.354233 513.000000,263.708466 512.610657,277.683990 
	C509.972870,291.729889 508.533997,305.349945 505.347504,318.548065 
	C480.480408,421.545319 392.905792,498.566071 286.879120,511.164612 
	C283.231567,511.597992 279.625427,512.380371 276.000000,513.000000 
	C262.979095,513.000000 249.958206,513.000000 236.314880,512.611206 
	C225.497360,510.749756 215.192657,509.806793 205.124069,507.722961 
	C99.705284,485.904907 19.355972,400.443085 3.721655,293.799469 
	C2.946725,288.513580 1.913143,283.265625 1.000000,278.000000 
	C1.000000,264.312439 1.000000,250.624878 1.388880,236.314957 
	C3.928899,222.585907 5.368925,209.315445 8.344136,196.398560 
	C31.311010,96.687859 118.033234,17.831406 219.701828,3.777135 
	C225.158234,3.022862 230.568344,1.933419 236.000000,1.000000 
	C249.020889,1.000000 262.041779,1.000000 275.693054,1.395331 
	C300.511597,3.508814 324.190704,8.130873 346.612183,17.266016 
	C438.668365,54.772301 493.583679,122.436745 510.311249,220.693024 
	C511.235809,226.123856 512.105042,231.564117 513.000000,237.000000 
M312.183655,412.312042 
	C358.025970,433.656647 411.142334,399.657623 410.750946,349.220428 
	C410.511597,318.373230 389.832825,291.071686 360.450928,282.810883 
	C330.273987,274.326508 298.804077,286.409546 282.511047,312.969452 
	C280.657166,315.991486 278.459015,317.481598 275.145966,317.950134 
	C264.942139,319.393005 254.790649,321.369843 244.542709,322.303833 
	C220.030685,324.537781 195.551956,323.807953 171.505722,318.269440 
	C158.970490,315.382233 146.762985,311.072083 134.222687,307.349823 
	C134.222687,311.538055 134.867355,316.574036 134.090500,321.380249 
	C132.394241,331.874542 137.691559,337.617157 146.338257,341.573914 
	C147.394653,342.057312 148.441330,342.562592 149.504425,343.030701 
	C173.323776,353.519165 198.559204,356.437469 224.176468,355.881989 
	C240.047409,355.537872 255.880753,353.459747 271.785828,352.155487 
	C273.873810,378.759003 286.572540,399.392792 312.183655,412.312042 
M141.347748,147.803528 
	C131.997482,154.576431 131.824509,158.437805 142.143967,163.767883 
	C151.056763,168.371429 160.516235,172.501007 170.214233,174.894241 
	C204.034714,183.240402 238.130371,183.022705 272.123749,175.587051 
	C283.340393,173.133545 294.232117,169.490051 303.888947,162.990936 
	C311.930298,157.579041 311.950623,154.010300 304.173859,148.433914 
	C303.500000,147.950714 302.811646,147.433441 302.050507,147.134476 
	C292.513947,143.388931 283.219238,138.679611 273.366028,136.155380 
	C246.466751,129.264252 219.044296,128.829193 191.591614,132.237946 
	C174.212830,134.395828 157.228516,138.209976 141.347748,147.803528 
M263.683289,204.206772 
	C219.504608,210.788452 176.216675,208.577911 134.225388,190.566071 
	C134.225388,198.589737 134.014481,206.074646 134.363220,213.533401 
	C134.458817,215.578247 135.704178,218.431335 137.324615,219.393982 
	C144.404449,223.599762 151.446381,228.378754 159.170883,230.902939 
	C195.314117,242.713684 232.148895,242.760864 269.160492,235.523941 
	C281.113525,233.186752 292.772308,229.628433 302.974030,222.745529 
	C305.892365,220.776566 309.348938,217.407578 309.739685,214.323425 
	C310.711365,206.653366 310.059357,198.777603 310.059357,190.177231 
	C295.256927,197.371246 280.166901,201.644608 263.683289,204.206772 
M226.424896,296.832550 
	C242.241364,294.904388 258.181274,293.658386 273.834076,290.825806 
	C285.720337,288.674866 297.312653,284.587555 306.724335,276.354065 
	C308.304962,274.971283 309.799652,272.595551 309.915741,270.596252 
	C310.309204,263.820099 310.065887,257.006958 310.065887,250.443939 
	C251.383881,272.768890 192.987457,272.769379 134.191299,250.371704 
	C134.191299,255.683044 134.609024,261.164581 134.078598,266.552826 
	C133.501160,272.418762 136.238113,276.081451 140.681793,278.924713 
	C143.607452,280.796692 146.658524,282.548798 149.834686,283.941101 
	C173.955627,294.515045 199.537262,296.676453 226.424896,296.832550 
z"/>
<path fill="none" opacity="1.000000" stroke="none" 
	d="
M276.468658,513.000000 
	C279.625427,512.380371 283.231567,511.597992 286.879120,511.164612 
	C392.905792,498.566071 480.480408,421.545319 505.347504,318.548065 
	C508.533997,305.349945 509.972870,291.729889 512.610657,278.152649 
	C513.000000,356.260681 513.000000,434.521362 513.000000,513.000000 
	C434.312561,513.000000 355.624939,513.000000 276.468658,513.000000 
z"/>
<path fill="none" opacity="1.000000" stroke="none" 
	d="
M513.000000,236.531342 
	C512.105042,231.564117 511.235809,226.123856 510.311249,220.693024 
	C493.583679,122.436745 438.668365,54.772301 346.612183,17.266016 
	C324.190704,8.130873 300.511597,3.508814 276.161743,1.395331 
	C354.926910,1.000000 433.853790,1.000000 513.000000,1.000000 
	C513.000000,79.354088 513.000000,157.708389 513.000000,236.531342 
z"/>
<path fill="none" opacity="1.000000" stroke="none" 
	d="
M1.000000,278.468658 
	C1.913143,283.265625 2.946725,288.513580 3.721655,293.799469 
	C19.355972,400.443085 99.705284,485.904907 205.124069,507.722961 
	C215.192657,509.806793 225.497360,510.749756 235.846222,512.611206 
	C157.739624,513.000000 79.479256,513.000000 1.000000,513.000000 
	C1.000000,434.979248 1.000000,356.958282 1.000000,278.468658 
z"/>
<path fill="none" opacity="1.000000" stroke="none" 
	d="
M235.531342,1.000000 
	C230.568344,1.933419 225.158234,3.022862 219.701828,3.777135 
	C118.033234,17.831406 31.311010,96.687859 8.344136,196.398560 
	C5.368925,209.315445 3.928899,222.585907 1.388880,235.846298 
	C1.000000,157.739624 1.000000,79.479240 1.000000,1.000000 
	C79.020760,1.000000 157.041718,1.000000 235.531342,1.000000 
z"/>
<path fill="#FCFCFC" opacity="1.000000" stroke="none" 
	d="
M311.835083,412.166809 
	C286.572540,399.392792 273.873810,378.759003 271.785828,352.155487 
	C255.880753,353.459747 240.047409,355.537872 224.176468,355.881989 
	C198.559204,356.437469 173.323776,353.519165 149.504425,343.030701 
	C148.441330,342.562592 147.394653,342.057312 146.338257,341.573914 
	C137.691559,337.617157 132.394241,331.874542 134.090500,321.380249 
	C134.867355,316.574036 134.222687,311.538055 134.222687,307.349823 
	C146.762985,311.072083 158.970490,315.382233 171.505722,318.269440 
	C195.551956,323.807953 220.030685,324.537781 244.542709,322.303833 
	C254.790649,321.369843 264.942139,319.393005 275.145966,317.950134 
	C278.459015,317.481598 280.657166,315.991486 282.511047,312.969452 
	C298.804077,286.409546 330.273987,274.326508 360.450928,282.810883 
	C389.832825,291.071686 410.511597,318.373230 410.750946,349.220428 
	C411.142334,399.657623 358.025970,433.656647 311.835083,412.166809 
M327.497406,393.091431 
	C328.330902,394.214783 329.721100,395.263153 329.884460,396.476746 
	C330.248047,399.177521 329.997925,401.960907 329.997925,404.502350 
	C336.789185,404.502350 342.850281,404.502350 349.128632,404.502350 
	C349.128632,400.495636 349.128632,396.851166 349.128632,393.164917 
	C350.964020,392.744049 352.591003,392.402496 354.201782,391.996643 
	C367.916595,388.541016 376.163330,378.651215 376.303680,365.509277 
	C376.439819,352.767151 369.359863,344.415405 354.679779,340.893311 
	C346.297424,338.882172 337.703003,337.770081 329.249908,336.030548 
	C326.127350,335.387939 322.997589,334.149078 322.959229,330.112091 
	C322.919067,325.879608 325.729736,323.858826 329.358856,322.949554 
	C340.212036,320.230408 350.134094,321.281891 357.906372,330.723938 
	C363.118744,328.304688 368.315979,325.892487 373.648987,323.417236 
	C369.025848,312.052032 360.151276,306.968079 348.960083,304.570953 
	C348.960083,301.069672 348.960083,297.807434 348.960083,294.416260 
	C342.482452,294.416260 336.414368,294.416260 329.952148,294.416260 
	C329.952148,297.935394 329.952148,301.205658 329.952148,303.880737 
	C324.806061,305.883972 319.974915,307.242828 315.654785,309.556030 
	C306.921722,314.232208 302.880432,321.973907 303.324738,331.792908 
	C303.787598,342.021027 309.122253,349.048431 318.818024,352.158478 
	C324.468048,353.970764 330.452667,354.733734 336.278717,356.005463 
	C341.137054,357.065979 346.166290,357.706207 350.756256,359.475769 
	C352.955383,360.323547 355.743378,363.387573 355.696625,365.387848 
	C355.635529,368.002045 353.284607,370.765503 351.410706,373.047485 
	C350.497742,374.159302 348.479401,374.556610 346.880951,374.881622 
	C334.359619,377.427399 323.462036,375.396057 316.174988,363.435181 
	C310.469299,365.862762 304.865570,368.246948 299.070801,370.712433 
	C304.179718,383.660736 313.765656,390.369843 327.497406,393.091431 
z"/>
<path fill="#FDFDFD" opacity="1.000000" stroke="none" 
	d="
M141.640808,147.590332 
	C157.228516,138.209976 174.212830,134.395828 191.591614,132.237946 
	C219.044296,128.829193 246.466751,129.264252 273.366028,136.155380 
	C283.219238,138.679611 292.513947,143.388931 302.050507,147.134476 
	C302.811646,147.433441 303.500000,147.950714 304.173859,148.433914 
	C311.950623,154.010300 311.930298,157.579041 303.888947,162.990936 
	C294.232117,169.490051 283.340393,173.133545 272.123749,175.587051 
	C238.130371,183.022705 204.034714,183.240402 170.214233,174.894241 
	C160.516235,172.501007 151.056763,168.371429 142.143967,163.767883 
	C131.824509,158.437805 131.997482,154.576431 141.640808,147.590332 
z"/>
<path fill="#FCFCFC" opacity="1.000000" stroke="none" 
	d="
M264.114624,204.146576 
	C280.166901,201.644608 295.256927,197.371246 310.059357,190.177231 
	C310.059357,198.777603 310.711365,206.653366 309.739685,214.323425 
	C309.348938,217.407578 305.892365,220.776566 302.974030,222.745529 
	C292.772308,229.628433 281.113525,233.186752 269.160492,235.523941 
	C232.148895,242.760864 195.314117,242.713684 159.170883,230.902939 
	C151.446381,228.378754 144.404449,223.599762 137.324615,219.393982 
	C135.704178,218.431335 134.458817,215.578247 134.363220,213.533401 
	C134.014481,206.074646 134.225388,198.589737 134.225388,190.566071 
	C176.216675,208.577911 219.504608,210.788452 264.114624,204.146576 
z"/>
<path fill="#FDFDFD" opacity="1.000000" stroke="none" 
	d="
M225.935699,296.848816 
	C199.537262,296.676453 173.955627,294.515045 149.834686,283.941101 
	C146.658524,282.548798 143.607452,280.796692 140.681793,278.924713 
	C136.238113,276.081451 133.501160,272.418762 134.078598,266.552826 
	C134.609024,261.164581 134.191299,255.683044 134.191299,250.371704 
	C192.987457,272.769379 251.383881,272.768890 310.065887,250.443939 
	C310.065887,257.006958 310.309204,263.820099 309.915741,270.596252 
	C309.799652,272.595551 308.304962,274.971283 306.724335,276.354065 
	C297.312653,284.587555 285.720337,288.674866 273.834076,290.825806 
	C258.181274,293.658386 242.241364,294.904388 225.935699,296.848816 
z"/>
<path fill="#040404" opacity="1.000000" stroke="none" 
	d="
M327.074219,393.043884 
	C313.765656,390.369843 304.179718,383.660736 299.070801,370.712433 
	C304.865570,368.246948 310.469299,365.862762 316.174988,363.435181 
	C323.462036,375.396057 334.359619,377.427399 346.880951,374.881622 
	C348.479401,374.556610 350.497742,374.159302 351.410706,373.047485 
	C353.284607,370.765503 355.635529,368.002045 355.696625,365.387848 
	C355.743378,363.387573 352.955383,360.323547 350.756256,359.475769 
	C346.166290,357.706207 341.137054,357.065979 336.278717,356.005463 
	C330.452667,354.733734 324.468048,353.970764 318.818024,352.158478 
	C309.122253,349.048431 303.787598,342.021027 303.324738,331.792908 
	C302.880432,321.973907 306.921722,314.232208 315.654785,309.556030 
	C319.974915,307.242828 324.806061,305.883972 329.952148,303.880737 
	C329.952148,301.205658 329.952148,297.935394 329.952148,294.416260 
	C336.414368,294.416260 342.482452,294.416260 348.960083,294.416260 
	C348.960083,297.807434 348.960083,301.069672 348.960083,304.570953 
	C360.151276,306.968079 369.025848,312.052032 373.648987,323.417236 
	C368.315979,325.892487 363.118744,328.304688 357.906372,330.723938 
	C350.134094,321.281891 340.212036,320.230408 329.358856,322.949554 
	C325.729736,323.858826 322.919067,325.879608 322.959229,330.112091 
	C322.997589,334.149078 326.127350,335.387939 329.249908,336.030548 
	C337.703003,337.770081 346.297424,338.882172 354.679779,340.893311 
	C369.359863,344.415405 376.439819,352.767151 376.303680,365.509277 
	C376.163330,378.651215 367.916595,388.541016 354.201782,391.996643 
	C352.591003,392.402496 350.964020,392.744049 349.128632,393.164917 
	C349.128632,396.851166 349.128632,400.495636 349.128632,404.502350 
	C342.850281,404.502350 336.789185,404.502350 329.997925,404.502350 
	C329.997925,401.960907 330.248047,399.177521 329.884460,396.476746 
	C329.721100,395.263153 328.330902,394.214783 327.074219,393.043884 
z"/>
</svg>