<svg version="1.1" id="Layer_1" xmlns="http://www.w3.org/2000/svg" xmlns:xlink="http://www.w3.org/1999/xlink" x="0px" y="0px"
	 width="100%" viewBox="0 0 512 512" enable-background="new 0 0 512 512" xml:space="preserve">
<path fill="#FDFDFD" opacity="1.000000" stroke="none" 
	d="
M513.000000,200.000000 
	C513.000000,304.641235 513.000000,408.782471 513.000000,512.961853 
	C342.400421,512.961853 171.800827,512.961853 1.100622,512.961853 
	C1.100622,342.442139 1.100622,171.884171 1.100622,1.163107 
	C171.666534,1.163107 342.333252,1.163107 513.000000,1.163107 
	C513.000000,67.199127 513.000000,133.349564 513.000000,200.000000 
M103.449532,53.949390 
	C96.214363,60.088593 88.686729,65.917290 81.788765,72.414505 
	C3.354298,146.292221 -20.254593,263.449493 24.992718,361.308594 
	C62.062481,441.481567 124.911972,490.450134 211.690338,507.259491 
	C271.336884,518.813293 328.378723,509.032501 381.099457,479.131409 
	C448.036530,441.167419 490.096527,383.934692 506.103271,308.502350 
	C519.138184,247.074860 510.388458,188.133560 479.373260,133.669312 
	C437.218506,59.643547 373.277893,15.882516 288.539886,4.682686 
	C220.676758,-4.286784 159.141312,13.117117 103.449532,53.949390 
z"/>
<path fill="#020202" opacity="1.000000" stroke="none" 
	d="
M103.731842,53.731369 
	C159.141312,13.117117 220.676758,-4.286784 288.539886,4.682686 
	C373.277893,15.882516 437.218506,59.643547 479.373260,133.669312 
	C510.388458,188.133560 519.138184,247.074860 506.103271,308.502350 
	C490.096527,383.934692 448.036530,441.167419 381.099457,479.131409 
	C328.378723,509.032501 271.336884,518.813293 211.690338,507.259491 
	C124.911972,490.450134 62.062481,441.481567 24.992718,361.308594 
	C-20.254593,263.449493 3.354298,146.292221 81.788765,72.414505 
	C88.686729,65.917290 96.214363,60.088593 103.731842,53.731369 
M311.927124,346.501862 
	C312.244324,348.306549 312.519928,350.119690 312.885071,351.914642 
	C318.074921,377.427795 338.279236,390.130829 363.096649,382.337494 
	C372.285339,379.451996 381.377228,374.823517 389.152771,369.131409 
	C416.713806,348.955353 434.986938,321.548370 446.734283,289.845856 
	C453.775787,270.842987 458.021362,251.185944 454.917786,230.608902 
	C450.800812,203.313538 429.056244,189.207886 402.865784,197.717773 
	C395.086151,200.245544 387.471985,204.197403 380.741394,208.876755 
	C354.704773,226.978333 336.897125,251.901550 324.270233,280.577271 
	C315.184814,301.210297 309.950378,322.793976 311.927124,346.501862 
M344.637878,101.849892 
	C334.934113,93.681519 323.790833,88.077393 311.808929,84.293831 
	C277.541016,73.472954 242.930740,73.059799 208.348282,82.430962 
	C190.973267,87.139236 174.809692,94.591904 162.630493,108.609703 
	C149.749344,123.435425 149.675232,142.248703 162.255234,157.337692 
	C170.594803,167.340561 181.362747,173.927795 193.226196,178.651199 
	C227.781982,192.409424 263.291718,193.506546 299.263550,185.560760 
	C315.679047,181.934769 331.078613,175.735764 344.198944,164.855637 
	C352.201691,158.219330 358.445312,150.272842 360.399658,139.766922 
	C363.312561,124.108093 356.273376,112.350273 344.637878,101.849892 
M79.984451,307.557648 
	C96.548447,343.627136 122.714714,370.687531 157.403946,389.602539 
	C171.733612,397.416107 186.863525,402.795197 203.540436,402.304382 
	C222.492523,401.746643 237.751389,388.319580 239.901443,370.198303 
	C241.260925,358.739990 239.712631,347.615540 235.606720,336.845764 
	C222.341064,302.049957 199.319748,275.058167 168.687561,254.486816 
	C152.692947,243.745499 135.465576,235.527588 115.846527,233.538498 
	C90.093239,230.927460 71.712967,247.348450 71.663879,273.135498 
	C71.641235,285.030029 74.868462,296.130554 79.984451,307.557648 
M376.754578,152.898056 
	C377.029846,154.369751 377.219818,155.863464 377.593475,157.309738 
	C381.669495,173.087479 397.695953,182.678986 413.492676,178.821060 
	C429.318909,174.955902 439.139679,159.105988 435.542236,143.234695 
	C432.196808,128.475266 418.009064,118.332008 403.261139,120.155922 
	C387.048981,122.160934 376.311920,135.033279 376.754578,152.898056 
M242.616058,420.639801 
	C243.381958,438.827057 256.874664,451.916290 273.947388,451.034241 
	C290.407715,450.183838 303.080780,436.274872 302.395752,419.811646 
	C301.748566,404.257996 288.831818,391.556274 273.291290,391.191803 
	C257.078522,390.811523 244.460648,402.613312 242.616058,420.639801 
M100.016495,139.046112 
	C98.688194,138.979218 97.360237,138.862640 96.031532,138.853180 
	C83.737381,138.765701 72.638390,146.304810 68.102333,157.803207 
	C63.657265,169.070969 66.538963,181.981842 75.364235,190.338730 
	C84.370987,198.867462 97.569130,201.001434 108.684151,195.726135 
	C119.839424,190.431717 126.841423,178.470581 125.752762,166.568665 
	C124.464050,152.479645 115.700180,142.831451 100.016495,139.046112 
M244.091446,253.660629 
	C237.087372,266.493500 238.503448,280.289124 247.828613,290.068787 
	C256.646667,299.316620 270.938934,301.978851 282.242615,296.479065 
	C293.969910,290.773163 300.351807,279.147491 299.096893,265.776245 
	C298.013794,254.235748 289.101776,243.998764 277.207275,240.632217 
	C265.001099,237.177444 252.708649,241.846085 244.091446,253.660629 
z"/>
<path fill="#F9F9F9" opacity="1.000000" stroke="none" 
	d="
M311.875732,346.065125 
	C309.950378,322.793976 315.184814,301.210297 324.270233,280.577271 
	C336.897125,251.901550 354.704773,226.978333 380.741394,208.876755 
	C387.471985,204.197403 395.086151,200.245544 402.865784,197.717773 
	C429.056244,189.207886 450.800812,203.313538 454.917786,230.608902 
	C458.021362,251.185944 453.775787,270.842987 446.734283,289.845856 
	C434.986938,321.548370 416.713806,348.955353 389.152771,369.131409 
	C381.377228,374.823517 372.285339,379.451996 363.096649,382.337494 
	C338.279236,390.130829 318.074921,377.427795 312.885071,351.914642 
	C312.519928,350.119690 312.244324,348.306549 311.875732,346.065125 
M329.863892,342.199860 
	C330.523193,345.453125 330.899719,348.795502 331.891876,351.943878 
	C335.726257,364.111206 344.486481,369.453888 356.594604,365.334656 
	C365.094452,362.442932 373.791199,358.419098 380.678223,352.793121 
	C410.933807,328.077271 429.522614,296.128784 436.506226,257.605469 
	C438.458008,246.838943 438.823517,236.057159 434.537506,225.646545 
	C430.735474,216.411499 424.970551,212.879181 415.011871,213.695190 
	C405.912720,214.440765 398.159851,218.588287 390.927216,223.779922 
	C368.109375,240.158768 352.366180,262.164795 341.108215,287.529236 
	C333.542053,304.575989 328.995148,322.387878 329.863892,342.199860 
z"/>
<path fill="#F9F9F9" opacity="1.000000" stroke="none" 
	d="
M344.907593,102.079987 
	C356.273376,112.350273 363.312561,124.108093 360.399658,139.766922 
	C358.445312,150.272842 352.201691,158.219330 344.198944,164.855637 
	C331.078613,175.735764 315.679047,181.934769 299.263550,185.560760 
	C263.291718,193.506546 227.781982,192.409424 193.226196,178.651199 
	C181.362747,173.927795 170.594803,167.340561 162.255234,157.337692 
	C149.675232,142.248703 149.749344,123.435425 162.630493,108.609703 
	C174.809692,94.591904 190.973267,87.139236 208.348282,82.430962 
	C242.930740,73.059799 277.541016,73.472954 311.808929,84.293831 
	C323.790833,88.077393 334.934113,93.681519 344.907593,102.079987 
M201.166000,162.402695 
	C230.198181,173.328293 259.983490,174.707596 290.196899,168.966949 
	C305.867950,165.989395 320.879791,160.981598 333.226624,150.302170 
	C346.232544,139.052673 346.379120,126.443428 332.740326,115.945435 
	C325.478180,110.355682 317.071381,105.574867 308.436310,102.568718 
	C277.212219,91.698578 245.388290,91.465286 213.518478,99.901222 
	C200.520630,103.341751 188.275803,108.557999 178.513565,118.221992 
	C168.618820,128.017136 168.311661,139.026993 178.780869,148.143997 
	C185.193680,153.728531 193.185730,157.499619 201.166000,162.402695 
z"/>
<path fill="#F9F9F9" opacity="1.000000" stroke="none" 
	d="
M79.844666,307.207184 
	C74.868462,296.130554 71.641235,285.030029 71.663879,273.135498 
	C71.712967,247.348450 90.093239,230.927460 115.846527,233.538498 
	C135.465576,235.527588 152.692947,243.745499 168.687561,254.486816 
	C199.319748,275.058167 222.341064,302.049957 235.606720,336.845764 
	C239.712631,347.615540 241.260925,358.739990 239.901443,370.198303 
	C237.751389,388.319580 222.492523,401.746643 203.540436,402.304382 
	C186.863525,402.795197 171.733612,397.416107 157.403946,389.602539 
	C122.714714,370.687531 96.548447,343.627136 79.844666,307.207184 
M91.964043,287.469238 
	C92.375862,288.908447 92.673042,290.392517 93.216209,291.780334 
	C107.881981,329.251190 133.564011,356.711792 169.137589,375.129425 
	C179.447906,380.467407 190.222733,384.352631 202.051224,383.992340 
	C215.288727,383.589172 223.014191,375.681519 222.043671,362.544983 
	C221.511642,355.343689 220.254639,347.869171 217.598694,341.205750 
	C202.812531,304.109039 176.240448,277.723053 141.147247,259.591370 
	C131.625519,254.671783 121.347374,251.717117 110.452255,251.688354 
	C98.223701,251.656082 90.160469,259.186737 90.032104,271.367584 
	C89.978401,276.463287 91.131111,281.571716 91.964043,287.469238 
z"/>
<path fill="#F8F8F8" opacity="1.000000" stroke="none" 
	d="
M376.697632,152.484222 
	C376.311920,135.033279 387.048981,122.160934 403.261139,120.155922 
	C418.009064,118.332008 432.196808,128.475266 435.542236,143.234695 
	C439.139679,159.105988 429.318909,174.955902 413.492676,178.821060 
	C397.695953,182.678986 381.669495,173.087479 377.593475,157.309738 
	C377.219818,155.863464 377.029846,154.369751 376.697632,152.484222 
M411.074615,139.127426 
	C400.995941,136.584183 393.017822,143.124786 395.072021,152.246628 
	C396.257690,157.511642 400.774475,161.303207 406.078583,161.485977 
	C411.189331,161.662079 415.790131,158.400391 417.440735,153.430939 
	C419.262146,147.947250 417.353882,143.275711 411.074615,139.127426 
z"/>
<path fill="#F9F9F9" opacity="1.000000" stroke="none" 
	d="
M242.652161,420.227600 
	C244.460648,402.613312 257.078522,390.811523 273.291290,391.191803 
	C288.831818,391.556274 301.748566,404.257996 302.395752,419.811646 
	C303.080780,436.274872 290.407715,450.183838 273.947388,451.034241 
	C256.874664,451.916290 243.381958,438.827057 242.652161,420.227600 
M268.748810,410.083557 
	C262.698547,413.133362 260.042969,417.590088 261.010559,423.070343 
	C262.110260,429.298859 268.007782,433.685303 274.036469,432.758698 
	C280.718445,431.731659 285.202271,425.605499 284.056915,419.067902 
	C282.893890,412.429565 276.953369,408.671143 268.748810,410.083557 
z"/>
<path fill="#F9F9F9" opacity="1.000000" stroke="none" 
	d="
M100.450279,139.118378 
	C115.700180,142.831451 124.464050,152.479645 125.752762,166.568665 
	C126.841423,178.470581 119.839424,190.431717 108.684151,195.726135 
	C97.569130,201.001434 84.370987,198.867462 75.364235,190.338730 
	C66.538963,181.981842 63.657265,169.070969 68.102333,157.803207 
	C72.638390,146.304810 83.737381,138.765701 96.031532,138.853180 
	C97.360237,138.862640 98.688194,138.979218 100.450279,139.118378 
M106.115715,174.422165 
	C108.672630,169.420166 108.176659,164.705215 104.347359,160.627991 
	C101.134750,157.207367 97.056747,156.103348 92.491188,157.527176 
	C87.696220,159.022568 84.349602,163.428925 84.200920,168.268433 
	C84.052742,173.091492 87.243759,177.926193 91.700157,179.630554 
	C96.742043,181.558853 101.367699,180.064575 106.115715,174.422165 
z"/>
<path fill="#FAFAFA" opacity="1.000000" stroke="none" 
	d="
M244.294739,253.357864 
	C252.708649,241.846085 265.001099,237.177444 277.207275,240.632217 
	C289.101776,243.998764 298.013794,254.235748 299.096893,265.776245 
	C300.351807,279.147491 293.969910,290.773163 282.242615,296.479065 
	C270.938934,301.978851 256.646667,299.316620 247.828613,290.068787 
	C238.503448,280.289124 237.087372,266.493500 244.294739,253.357864 
M278.506500,276.883118 
	C282.343262,270.701599 281.878265,264.885864 277.213348,260.709656 
	C273.017242,256.953064 266.444092,256.808228 262.111237,260.376892 
	C257.094635,264.508728 256.323151,271.948395 260.400909,276.870056 
	C264.885681,282.282928 271.810852,282.512054 278.506500,276.883118 
z"/>
<path fill="#040404" opacity="1.000000" stroke="none" 
	d="
M329.847961,341.731140 
	C328.995148,322.387878 333.542053,304.575989 341.108215,287.529236 
	C352.366180,262.164795 368.109375,240.158768 390.927216,223.779922 
	C398.159851,218.588287 405.912720,214.440765 415.011871,213.695190 
	C424.970551,212.879181 430.735474,216.411499 434.537506,225.646545 
	C438.823517,236.057159 438.458008,246.838943 436.506226,257.605469 
	C429.522614,296.128784 410.933807,328.077271 380.678223,352.793121 
	C373.791199,358.419098 365.094452,362.442932 356.594604,365.334656 
	C344.486481,369.453888 335.726257,364.111206 331.891876,351.943878 
	C330.899719,348.795502 330.523193,345.453125 329.847961,341.731140 
M381.869690,311.369019 
	C391.520752,294.659698 401.215698,277.975494 410.797455,261.226532 
	C413.856384,255.879501 412.497375,250.488861 407.752625,247.890747 
	C403.104706,245.345657 398.136566,246.820114 395.072754,252.085815 
	C382.106628,274.370392 369.200867,296.690582 356.397156,319.068787 
	C353.427948,324.258362 354.883667,329.506989 359.477386,332.019562 
	C364.165314,334.583679 369.093140,333.090118 372.202698,327.951355 
	C375.388000,322.687469 378.394806,317.315582 381.869690,311.369019 
z"/>
<path fill="#040404" opacity="1.000000" stroke="none" 
	d="
M200.817291,162.243896 
	C193.185730,157.499619 185.193680,153.728531 178.780869,148.143997 
	C168.311661,139.026993 168.618820,128.017136 178.513565,118.221992 
	C188.275803,108.557999 200.520630,103.341751 213.518478,99.901222 
	C245.388290,91.465286 277.212219,91.698578 308.436310,102.568718 
	C317.071381,105.574867 325.478180,110.355682 332.740326,115.945435 
	C346.379120,126.443428 346.232544,139.052673 333.226624,150.302170 
	C320.879791,160.981598 305.867950,165.989395 290.196899,168.966949 
	C259.983490,174.707596 230.198181,173.328293 200.817291,162.243896 
M286.486450,142.251740 
	C289.150238,142.251007 291.814240,142.271042 294.477783,142.245514 
	C301.478729,142.178406 305.767517,138.572021 305.581818,132.932877 
	C305.404694,127.553452 301.120758,124.110085 294.431488,124.098038 
	C278.615356,124.069557 262.799164,124.087730 246.982971,124.088821 
	C237.326782,124.089485 227.668320,123.966362 218.015213,124.139984 
	C211.440231,124.258255 207.242844,129.622406 208.806778,135.444748 
	C210.049164,140.070007 213.173340,142.224670 219.063080,142.234573 
	C241.205673,142.271790 263.348358,142.250885 286.486450,142.251740 
z"/>
<path fill="#050505" opacity="1.000000" stroke="none" 
	d="
M91.849670,287.071777 
	C91.131111,281.571716 89.978401,276.463287 90.032104,271.367584 
	C90.160469,259.186737 98.223701,251.656082 110.452255,251.688354 
	C121.347374,251.717117 131.625519,254.671783 141.147247,259.591370 
	C176.240448,277.723053 202.812531,304.109039 217.598694,341.205750 
	C220.254639,347.869171 221.511642,355.343689 222.043671,362.544983 
	C223.014191,375.681519 215.288727,383.589172 202.051224,383.992340 
	C190.222733,384.352631 179.447906,380.467407 169.137589,375.129425 
	C133.564011,356.711792 107.881981,329.251190 93.216209,291.780334 
	C92.673042,290.392517 92.375862,288.908447 91.849670,287.071777 
M126.812691,281.005829 
	C118.222992,284.033630 116.432037,291.027679 122.799118,297.434753 
	C140.637863,315.385559 158.549988,333.263580 176.473618,351.129791 
	C181.097885,355.739258 186.216278,356.116241 190.099503,352.345367 
	C194.155441,348.406769 193.930725,343.019379 189.192581,338.258759 
	C171.337265,320.318634 153.469833,302.389099 135.409775,284.656403 
	C133.469223,282.751038 130.242386,282.155731 126.812691,281.005829 
z"/>
<path fill="#090909" opacity="1.000000" stroke="none" 
	d="
M411.411926,139.312637 
	C417.353882,143.275711 419.262146,147.947250 417.440735,153.430939 
	C415.790131,158.400391 411.189331,161.662079 406.078583,161.485977 
	C400.774475,161.303207 396.257690,157.511642 395.072021,152.246628 
	C393.017822,143.124786 400.995941,136.584183 411.411926,139.312637 
z"/>
<path fill="#0A0A0A" opacity="1.000000" stroke="none" 
	d="
M269.111206,409.962524 
	C276.953369,408.671143 282.893890,412.429565 284.056915,419.067902 
	C285.202271,425.605499 280.718445,431.731659 274.036469,432.758698 
	C268.007782,433.685303 262.110260,429.298859 261.010559,423.070343 
	C260.042969,417.590088 262.698547,413.133362 269.111206,409.962524 
z"/>
<path fill="#0B0B0B" opacity="1.000000" stroke="none" 
	d="
M105.941071,174.754379 
	C101.367699,180.064575 96.742043,181.558853 91.700157,179.630554 
	C87.243759,177.926193 84.052742,173.091492 84.200920,168.268433 
	C84.349602,163.428925 87.696220,159.022568 92.491188,157.527176 
	C97.056747,156.103348 101.134750,157.207367 104.347359,160.627991 
	C108.176659,164.705215 108.672630,169.420166 105.941071,174.754379 
z"/>
<path fill="#0B0B0B" opacity="1.000000" stroke="none" 
	d="
M278.249451,277.167603 
	C271.810852,282.512054 264.885681,282.282928 260.400909,276.870056 
	C256.323151,271.948395 257.094635,264.508728 262.111237,260.376892 
	C266.444092,256.808228 273.017242,256.953064 277.213348,260.709656 
	C281.878265,264.885864 282.343262,270.701599 278.249451,277.167603 
z"/>
<path fill="#F8F8F8" opacity="1.000000" stroke="none" 
	d="
M381.674744,311.679993 
	C378.394806,317.315582 375.388000,322.687469 372.202698,327.951355 
	C369.093140,333.090118 364.165314,334.583679 359.477386,332.019562 
	C354.883667,329.506989 353.427948,324.258362 356.397156,319.068787 
	C369.200867,296.690582 382.106628,274.370392 395.072754,252.085815 
	C398.136566,246.820114 403.104706,245.345657 407.752625,247.890747 
	C412.497375,250.488861 413.856384,255.879501 410.797455,261.226532 
	C401.215698,277.975494 391.520752,294.659698 381.674744,311.679993 
z"/>
<path fill="#FAFAFA" opacity="1.000000" stroke="none" 
	d="
M285.988739,142.251740 
	C263.348358,142.250885 241.205673,142.271790 219.063080,142.234573 
	C213.173340,142.224670 210.049164,140.070007 208.806778,135.444748 
	C207.242844,129.622406 211.440231,124.258255 218.015213,124.139984 
	C227.668320,123.966362 237.326782,124.089485 246.982971,124.088821 
	C262.799164,124.087730 278.615356,124.069557 294.431488,124.098038 
	C301.120758,124.110085 305.404694,127.553452 305.581818,132.932877 
	C305.767517,138.572021 301.478729,142.178406 294.477783,142.245514 
	C291.814240,142.271042 289.150238,142.251007 285.988739,142.251740 
z"/>
<path fill="#FAFAFA" opacity="1.000000" stroke="none" 
	d="
M127.212456,280.979248 
	C130.242386,282.155731 133.469223,282.751038 135.409775,284.656403 
	C153.469833,302.389099 171.337265,320.318634 189.192581,338.258759 
	C193.930725,343.019379 194.155441,348.406769 190.099503,352.345367 
	C186.216278,356.116241 181.097885,355.739258 176.473618,351.129791 
	C158.549988,333.263580 140.637863,315.385559 122.799118,297.434753 
	C116.432037,291.027679 118.222992,284.033630 127.212456,280.979248 
z"/>
</svg>