<svg version="1.1" id="Layer_1" xmlns="http://www.w3.org/2000/svg" xmlns:xlink="http://www.w3.org/1999/xlink" x="0px" y="0px"
	 width="100%" viewBox="0 0 512 512" enable-background="new 0 0 512 512" xml:space="preserve">
<path fill="#010101" opacity="1.000000" stroke="none" 
	d="
M513.000000,237.000000 
	C513.000000,250.354233 513.000000,263.708466 512.610779,277.684326 
	C509.974243,291.730865 508.536499,305.351166 505.351166,318.549683 
	C480.497284,421.531891 392.910522,498.561920 286.879913,511.165131 
	C283.232117,511.598694 279.625702,512.380554 276.000000,513.000000 
	C262.979095,513.000000 249.958206,513.000000 236.314056,512.610962 
	C225.495743,510.749664 215.191025,509.807281 205.122528,507.723541 
	C99.704529,485.906616 19.392187,400.483704 3.721595,293.800201 
	C2.945153,288.514252 1.913055,283.265869 0.999999,278.000000 
	C1.000000,264.312439 1.000000,250.624878 1.389085,236.314133 
	C3.928831,222.584167 5.371603,209.314590 8.342607,196.396484 
	C31.263470,96.735039 118.007622,17.858469 219.701019,3.776205 
	C225.157516,3.020600 230.568069,1.933034 236.000000,0.999999 
	C249.020889,1.000000 262.041779,1.000000 275.693604,1.395307 
	C300.513824,3.502968 324.198151,8.120822 346.615601,17.258387 
	C438.657288,54.775444 493.589844,122.431595 510.312164,220.692184 
	C511.236420,226.123306 512.105347,231.563843 513.000000,237.000000 
M356.507263,399.495605 
	C356.507263,401.592987 356.507263,403.690338 356.507263,406.068665 
	C360.874481,406.068665 364.702942,405.813873 368.487732,406.112640 
	C385.207397,407.432281 397.579498,395.138489 397.323517,377.531281 
	C396.735107,337.055939 397.136963,296.566254 397.136902,256.082367 
	C397.136902,254.436203 397.136902,252.790039 397.136902,250.747421 
	C383.049591,250.253860 371.150787,245.147781 361.640686,235.192993 
	C334.877502,256.035034 318.183380,256.019928 289.737061,235.515182 
	C265.650269,256.146515 241.618774,255.824661 217.723572,235.444580 
	C198.588516,255.333496 166.215866,255.931442 146.174423,235.186600 
	C137.425369,243.832245 126.975670,249.191437 114.389229,250.319687 
	C114.294243,252.130112 114.151344,253.588272 114.150917,255.046463 
	C114.138885,296.030151 114.120903,337.013824 114.150665,377.997498 
	C114.163658,395.894043 124.423691,406.058533 142.411270,406.063965 
	C187.726547,406.077637 233.041840,406.068604 278.357117,406.068634 
	C279.800110,406.068634 281.243103,406.068634 283.185120,406.068634 
	C283.185120,369.557556 283.185120,333.520081 283.185120,297.443359 
	C307.781830,297.443359 331.870636,297.443359 356.507233,297.443359 
	C356.507233,331.270691 356.507233,364.881348 356.507263,399.495605 
M374.233246,198.604752 
	C374.469849,200.251099 374.775177,201.890915 374.931885,203.544830 
	C375.929047,214.069672 384.130951,222.668274 394.371368,223.882553 
	C405.030029,225.146423 415.489441,218.805008 418.528625,208.719269 
	C419.182617,206.548874 418.827332,203.270920 417.568665,201.447723 
	C397.719025,172.694183 377.676880,144.073013 357.532379,115.524864 
	C356.500183,114.062035 354.150574,112.690048 352.411163,112.686150 
	C288.264160,112.541946 224.116684,112.542976 159.969620,112.677551 
	C158.192062,112.681274 155.797256,113.899612 154.733902,115.328316 
	C133.069916,144.435318 111.528084,173.633652 90.108162,202.920746 
	C89.061089,204.352386 88.628708,206.971832 89.131294,208.678574 
	C92.348335,219.603439 104.639900,226.270950 115.656013,223.370529 
	C125.950066,220.660217 132.105743,213.039215 132.927872,201.575684 
	C133.354889,195.621262 136.325470,191.522507 141.556488,189.205734 
	C146.454834,187.036270 151.034073,188.392303 155.007507,191.760315 
	C158.907700,195.066269 159.322769,199.745483 159.905243,204.411758 
	C160.961777,212.875519 165.593719,218.853607 173.364014,222.187973 
	C181.384018,225.629501 188.999237,224.427200 195.931107,219.221481 
	C202.136429,214.561432 204.367859,207.930237 204.867126,200.496368 
	C205.243225,194.896484 208.520905,191.277115 213.367844,189.174011 
	C218.074524,187.131790 222.990051,187.913483 226.250687,191.659332 
	C228.675919,194.445435 230.502350,198.409485 231.027969,202.073730 
	C232.868256,214.903183 241.219498,223.523605 252.906036,224.032394 
	C265.198303,224.567581 275.813538,214.393631 276.367493,202.372116 
	C276.773499,193.562653 282.785828,187.969193 290.053619,188.224304 
	C297.272797,188.477722 302.373718,194.137726 303.040527,202.634613 
	C304.010040,214.988602 313.680023,224.102692 325.733032,224.022598 
	C337.558502,223.944031 347.023041,214.903885 347.998535,202.755508 
	C348.642853,194.731277 352.726471,189.609390 359.427490,188.420898 
	C365.484894,187.346527 370.762665,190.736511 374.233246,198.604752 
z"/>
<path fill="none" opacity="1.000000" stroke="none" 
	d="
M276.468658,513.000000 
	C279.625702,512.380554 283.232117,511.598694 286.879913,511.165131 
	C392.910522,498.561920 480.497284,421.531891 505.351166,318.549683 
	C508.536499,305.351166 509.974243,291.730865 512.610779,278.152985 
	C513.000000,356.260681 513.000000,434.521362 513.000000,513.000000 
	C434.312561,513.000000 355.624939,513.000000 276.468658,513.000000 
z"/>
<path fill="none" opacity="1.000000" stroke="none" 
	d="
M513.000000,236.531342 
	C512.105347,231.563843 511.236420,226.123306 510.312164,220.692184 
	C493.589844,122.431595 438.657288,54.775444 346.615601,17.258387 
	C324.198151,8.120822 300.513824,3.502968 276.162292,1.395307 
	C354.926910,1.000000 433.853790,1.000000 513.000000,1.000000 
	C513.000000,79.354088 513.000000,157.708389 513.000000,236.531342 
z"/>
<path fill="none" opacity="1.000000" stroke="none" 
	d="
M0.999999,278.468658 
	C1.913055,283.265869 2.945153,288.514252 3.721595,293.800201 
	C19.392187,400.483704 99.704529,485.906616 205.122528,507.723541 
	C215.191025,509.807281 225.495743,510.749664 235.845398,512.610962 
	C157.739624,513.000000 79.479256,513.000000 1.000000,513.000000 
	C1.000000,434.979248 1.000000,356.958282 0.999999,278.468658 
z"/>
<path fill="none" opacity="1.000000" stroke="none" 
	d="
M235.531342,0.999999 
	C230.568069,1.933034 225.157516,3.020600 219.701019,3.776205 
	C118.007622,17.858469 31.263470,96.735039 8.342607,196.396484 
	C5.371603,209.314590 3.928831,222.584167 1.389085,235.845474 
	C1.000000,157.739624 1.000000,79.479240 1.000000,1.000000 
	C79.020760,1.000000 157.041718,1.000000 235.531342,0.999999 
z"/>
<path fill="#FEFEFE" opacity="1.000000" stroke="none" 
	d="
M356.507263,398.993805 
	C356.507233,364.881348 356.507233,331.270691 356.507233,297.443359 
	C331.870636,297.443359 307.781830,297.443359 283.185120,297.443359 
	C283.185120,333.520081 283.185120,369.557556 283.185120,406.068634 
	C281.243103,406.068634 279.800110,406.068634 278.357117,406.068634 
	C233.041840,406.068604 187.726547,406.077637 142.411270,406.063965 
	C124.423691,406.058533 114.163658,395.894043 114.150665,377.997498 
	C114.120903,337.013824 114.138885,296.030151 114.150917,255.046463 
	C114.151344,253.588272 114.294243,252.130112 114.389229,250.319687 
	C126.975670,249.191437 137.425369,243.832245 146.174423,235.186600 
	C166.215866,255.931442 198.588516,255.333496 217.723572,235.444580 
	C241.618774,255.824661 265.650269,256.146515 289.737061,235.515182 
	C318.183380,256.019928 334.877502,256.035034 361.640686,235.192993 
	C371.150787,245.147781 383.049591,250.253860 397.136902,250.747421 
	C397.136902,252.790039 397.136902,254.436203 397.136902,256.082367 
	C397.136963,296.566254 396.735107,337.055939 397.323517,377.531281 
	C397.579498,395.138489 385.207397,407.432281 368.487732,406.112640 
	C364.702942,405.813873 360.874481,406.068665 356.507263,406.068665 
	C356.507263,403.690338 356.507263,401.592987 356.507263,398.993805 
M228.421021,355.000397 
	C230.208313,355.000397 231.995621,355.000397 233.831329,355.000397 
	C233.831329,335.858795 233.831329,317.156006 233.831329,298.391052 
	C206.795654,298.391052 180.070633,298.391052 153.273285,298.391052 
	C153.273285,317.358551 153.273285,336.070465 153.273285,355.000397 
	C178.188126,355.000397 202.813858,355.000397 228.421021,355.000397 
z"/>
<path fill="#FEFEFE" opacity="1.000000" stroke="none" 
	d="
M374.146179,198.211807 
	C370.762665,190.736511 365.484894,187.346527 359.427490,188.420898 
	C352.726471,189.609390 348.642853,194.731277 347.998535,202.755508 
	C347.023041,214.903885 337.558502,223.944031 325.733032,224.022598 
	C313.680023,224.102692 304.010040,214.988602 303.040527,202.634613 
	C302.373718,194.137726 297.272797,188.477722 290.053619,188.224304 
	C282.785828,187.969193 276.773499,193.562653 276.367493,202.372116 
	C275.813538,214.393631 265.198303,224.567581 252.906036,224.032394 
	C241.219498,223.523605 232.868256,214.903183 231.027969,202.073730 
	C230.502350,198.409485 228.675919,194.445435 226.250687,191.659332 
	C222.990051,187.913483 218.074524,187.131790 213.367844,189.174011 
	C208.520905,191.277115 205.243225,194.896484 204.867126,200.496368 
	C204.367859,207.930237 202.136429,214.561432 195.931107,219.221481 
	C188.999237,224.427200 181.384018,225.629501 173.364014,222.187973 
	C165.593719,218.853607 160.961777,212.875519 159.905243,204.411758 
	C159.322769,199.745483 158.907700,195.066269 155.007507,191.760315 
	C151.034073,188.392303 146.454834,187.036270 141.556488,189.205734 
	C136.325470,191.522507 133.354889,195.621262 132.927872,201.575684 
	C132.105743,213.039215 125.950066,220.660217 115.656013,223.370529 
	C104.639900,226.270950 92.348335,219.603439 89.131294,208.678574 
	C88.628708,206.971832 89.061089,204.352386 90.108162,202.920746 
	C111.528084,173.633652 133.069916,144.435318 154.733902,115.328316 
	C155.797256,113.899612 158.192062,112.681274 159.969620,112.677551 
	C224.116684,112.542976 288.264160,112.541946 352.411163,112.686150 
	C354.150574,112.690048 356.500183,114.062035 357.532379,115.524864 
	C377.676880,144.073013 397.719025,172.694183 417.568665,201.447723 
	C418.827332,203.270920 419.182617,206.548874 418.528625,208.719269 
	C415.489441,218.805008 405.030029,225.146423 394.371368,223.882553 
	C384.130951,222.668274 375.929047,214.069672 374.931885,203.544830 
	C374.775177,201.890915 374.469849,200.251099 374.146179,198.211807 
z"/>
<path fill="#010101" opacity="1.000000" stroke="none" 
	d="
M227.930313,355.000397 
	C202.813858,355.000397 178.188126,355.000397 153.273285,355.000397 
	C153.273285,336.070465 153.273285,317.358551 153.273285,298.391052 
	C180.070633,298.391052 206.795654,298.391052 233.831329,298.391052 
	C233.831329,317.156006 233.831329,335.858795 233.831329,355.000397 
	C231.995621,355.000397 230.208313,355.000397 227.930313,355.000397 
z"/>
</svg>