<svg version="1.1" id="Layer_1" xmlns="http://www.w3.org/2000/svg" xmlns:xlink="http://www.w3.org/1999/xlink" x="0px" y="0px"
	 width="100%" viewBox="0 0 512 512" enable-background="new 0 0 512 512" xml:space="preserve">
<path fill="#010101" opacity="1.000000" stroke="none" 
	d="
M276.000000,513.000000 
	C262.979095,513.000000 249.958206,513.000000 236.307861,512.621704 
	C224.037476,510.423553 212.226898,509.331146 200.784119,506.661957 
	C141.376373,492.804230 92.646446,461.857635 54.972469,413.833557 
	C28.432314,380.002075 11.576735,341.818878 4.725964,299.294586 
	C3.527596,291.856049 2.244151,284.431183 0.999999,277.000000 
	C1.000000,263.645782 1.000000,250.291550 1.381351,236.311401 
	C3.276163,225.492661 4.327982,215.205765 6.383034,205.123352 
	C15.261375,161.564774 34.388779,122.911438 63.641659,89.495667 
	C105.416153,41.776382 157.848495,13.239068 220.605469,3.763906 
	C226.410431,2.887463 232.202133,1.923385 238.000000,0.999999 
	C250.354233,1.000000 262.708466,1.000000 275.690857,1.386648 
	C292.970306,4.718049 309.929993,6.503032 326.213165,10.832447 
	C369.187286,22.258551 406.298492,44.377552 437.663177,75.889427 
	C477.989990,116.405510 502.473114,164.907089 510.329987,221.665054 
	C511.040985,226.801483 512.101685,231.889496 513.000000,237.000000 
	C513.000000,250.020889 513.000000,263.041779 512.628906,276.714783 
	C509.315765,293.642792 507.673492,310.285553 503.202179,326.129913 
	C485.668396,388.262054 449.281525,436.832092 395.213562,472.118408 
	C363.664368,492.708374 329.147247,505.305603 291.837982,510.369019 
	C286.537262,511.088379 281.278290,512.115356 276.000000,513.000000 
M152.287460,111.040024 
	C144.678772,111.623314 141.030090,115.299133 141.016663,122.737061 
	C140.970657,148.225601 140.660294,173.720245 141.107483,199.201035 
	C141.491928,221.106064 152.067459,237.049255 171.607117,246.996567 
	C173.335098,247.876236 175.112701,248.658386 176.814011,249.460724 
	C174.305130,286.517090 171.725677,323.224152 169.406937,359.947662 
	C168.896393,368.033630 168.068130,376.419128 169.585815,384.239868 
	C171.966080,396.505402 184.891830,404.411194 197.239502,402.854645 
	C210.189316,401.222198 220.524841,390.296844 219.870712,377.269470 
	C218.459534,349.165192 216.315247,321.097717 214.473022,293.015076 
	C213.515884,278.424683 212.563171,263.834045 211.621704,249.446060 
	C237.009399,238.447769 248.224426,219.349747 247.360458,192.389465 
	C246.853821,176.579712 247.288574,160.739944 247.291428,144.913681 
	C247.292847,137.084167 247.422913,129.250809 247.218689,121.426399 
	C247.060272,115.357010 242.904160,111.228760 237.278503,111.015579 
	C231.686783,110.803696 227.266083,114.679634 226.473221,120.614944 
	C226.254074,122.255547 226.307327,123.938072 226.306183,125.601418 
	C226.294510,142.593811 226.401215,159.587082 226.260605,176.578339 
	C226.163345,188.331253 218.773697,196.029343 206.779327,196.797821 
	C206.779327,194.980347 206.779297,193.193024 206.779343,191.405701 
	C206.780060,168.915741 206.750717,146.425705 206.804840,123.935883 
	C206.816849,118.948898 205.667831,114.611893 200.911880,112.162064 
	C191.421310,107.273407 181.809998,113.024376 181.788132,123.612030 
	C181.741348,146.268494 181.772385,168.925095 181.771576,191.581650 
	C181.771515,193.309967 181.771561,195.038284 181.771561,196.797226 
	C169.825043,196.008636 162.112457,188.196854 162.036514,177.095276 
	C161.914566,159.270752 162.015701,141.444748 161.996048,123.619400 
	C161.987991,116.305214 159.955750,113.496445 152.287460,111.040024 
M370.608795,319.886200 
	C369.088440,288.103821 367.543762,256.322571 366.054810,224.538712 
	C364.636017,194.252258 363.341309,163.959869 361.859009,133.676590 
	C361.197662,120.165337 351.300568,111.043556 337.648834,111.002075 
	C330.817413,110.981308 323.985870,110.982964 317.154419,111.001564 
	C297.866669,111.054077 285.158173,123.633308 285.123871,142.817551 
	C285.077667,168.643768 285.092529,194.470139 285.119659,220.296402 
	C285.134460,234.391190 291.532288,244.363159 304.484222,250.104568 
	C312.224426,253.535721 319.852966,257.225250 327.650299,260.517822 
	C330.693970,261.803101 331.675323,263.277008 331.495911,266.777771 
	C329.713501,301.549744 328.165863,336.333984 326.629028,371.118134 
	C326.274628,379.139374 328.087372,386.668427 332.819885,393.295868 
	C342.125885,406.328125 357.856934,406.198181 366.898254,392.993042 
	C371.687653,385.997986 373.328491,378.123688 372.941620,369.754669 
	C372.187714,353.445709 371.426910,337.137024 370.608795,319.886200 
z"/>
<path fill="none" opacity="1.000000" stroke="none" 
	d="
M276.468658,513.000000 
	C281.278290,512.115356 286.537262,511.088379 291.837982,510.369019 
	C329.147247,505.305603 363.664368,492.708374 395.213562,472.118408 
	C449.281525,436.832092 485.668396,388.262054 503.202179,326.129913 
	C507.673492,310.285553 509.315765,293.642792 512.628906,277.183441 
	C513.000000,355.593842 513.000000,434.187714 513.000000,513.000000 
	C434.312561,513.000000 355.624939,513.000000 276.468658,513.000000 
z"/>
<path fill="none" opacity="1.000000" stroke="none" 
	d="
M0.999999,277.468658 
	C2.244151,284.431183 3.527596,291.856049 4.725964,299.294586 
	C11.576735,341.818878 28.432314,380.002075 54.972469,413.833557 
	C92.646446,461.857635 141.376373,492.804230 200.784119,506.661957 
	C212.226898,509.331146 224.037476,510.423553 235.839203,512.621704 
	C157.739471,513.000000 79.478951,513.000000 1.000000,513.000000 
	C1.000000,434.645905 1.000000,356.291626 0.999999,277.468658 
z"/>
<path fill="none" opacity="1.000000" stroke="none" 
	d="
M237.531342,0.999999 
	C232.202133,1.923385 226.410431,2.887463 220.605469,3.763906 
	C157.848495,13.239068 105.416153,41.776382 63.641659,89.495667 
	C34.388779,122.911438 15.261375,161.564774 6.383034,205.123352 
	C4.327982,215.205765 3.276163,225.492661 1.381351,235.842743 
	C1.000000,157.739319 1.000000,79.478622 1.000000,1.000000 
	C79.687424,1.000000 158.375061,1.000000 237.531342,0.999999 
z"/>
<path fill="none" opacity="1.000000" stroke="none" 
	d="
M513.000000,236.531342 
	C512.101685,231.889496 511.040985,226.801483 510.329987,221.665054 
	C502.473114,164.907089 477.989990,116.405510 437.663177,75.889427 
	C406.298492,44.377552 369.187286,22.258551 326.213165,10.832447 
	C309.929993,6.503032 292.970306,4.718049 276.159485,1.386648 
	C354.926910,1.000000 433.853790,1.000000 513.000000,1.000000 
	C513.000000,79.354088 513.000000,157.708389 513.000000,236.531342 
z"/>
<path fill="#FDFDFD" opacity="1.000000" stroke="none" 
	d="
M152.685791,111.070145 
	C159.955750,113.496445 161.987991,116.305214 161.996048,123.619400 
	C162.015701,141.444748 161.914566,159.270752 162.036514,177.095276 
	C162.112457,188.196854 169.825043,196.008636 181.771561,196.797226 
	C181.771561,195.038284 181.771515,193.309967 181.771576,191.581650 
	C181.772385,168.925095 181.741348,146.268494 181.788132,123.612030 
	C181.809998,113.024376 191.421310,107.273407 200.911880,112.162064 
	C205.667831,114.611893 206.816849,118.948898 206.804840,123.935883 
	C206.750717,146.425705 206.780060,168.915741 206.779343,191.405701 
	C206.779297,193.193024 206.779327,194.980347 206.779327,196.797821 
	C218.773697,196.029343 226.163345,188.331253 226.260605,176.578339 
	C226.401215,159.587082 226.294510,142.593811 226.306183,125.601418 
	C226.307327,123.938072 226.254074,122.255547 226.473221,120.614944 
	C227.266083,114.679634 231.686783,110.803696 237.278503,111.015579 
	C242.904160,111.228760 247.060272,115.357010 247.218689,121.426399 
	C247.422913,129.250809 247.292847,137.084167 247.291428,144.913681 
	C247.288574,160.739944 246.853821,176.579712 247.360458,192.389465 
	C248.224426,219.349747 237.009399,238.447769 211.621704,249.446060 
	C212.563171,263.834045 213.515884,278.424683 214.473022,293.015076 
	C216.315247,321.097717 218.459534,349.165192 219.870712,377.269470 
	C220.524841,390.296844 210.189316,401.222198 197.239502,402.854645 
	C184.891830,404.411194 171.966080,396.505402 169.585815,384.239868 
	C168.068130,376.419128 168.896393,368.033630 169.406937,359.947662 
	C171.725677,323.224152 174.305130,286.517090 176.814011,249.460724 
	C175.112701,248.658386 173.335098,247.876236 171.607117,246.996567 
	C152.067459,237.049255 141.491928,221.106064 141.107483,199.201035 
	C140.660294,173.720245 140.970657,148.225601 141.016663,122.737061 
	C141.030090,115.299133 144.678772,111.623314 152.685791,111.070145 
z"/>
<path fill="#FEFEFE" opacity="1.000000" stroke="none" 
	d="
M370.638885,320.357239 
	C371.426910,337.137024 372.187714,353.445709 372.941620,369.754669 
	C373.328491,378.123688 371.687653,385.997986 366.898254,392.993042 
	C357.856934,406.198181 342.125885,406.328125 332.819885,393.295868 
	C328.087372,386.668427 326.274628,379.139374 326.629028,371.118134 
	C328.165863,336.333984 329.713501,301.549744 331.495911,266.777771 
	C331.675323,263.277008 330.693970,261.803101 327.650299,260.517822 
	C319.852966,257.225250 312.224426,253.535721 304.484222,250.104568 
	C291.532288,244.363159 285.134460,234.391190 285.119659,220.296402 
	C285.092529,194.470139 285.077667,168.643768 285.123871,142.817551 
	C285.158173,123.633308 297.866669,111.054077 317.154419,111.001564 
	C323.985870,110.982964 330.817413,110.981308 337.648834,111.002075 
	C351.300568,111.043556 361.197662,120.165337 361.859009,133.676590 
	C363.341309,163.959869 364.636017,194.252258 366.054810,224.538712 
	C367.543762,256.322571 369.088440,288.103821 370.638885,320.357239 
z"/>
</svg>