<svg version="1.1" id="Layer_1" xmlns="http://www.w3.org/2000/svg" xmlns:xlink="http://www.w3.org/1999/xlink" x="0px" y="0px"
	 width="100%" viewBox="0 0 512 512" enable-background="new 0 0 512 512" xml:space="preserve">
<path fill="#010101" opacity="1.000000" stroke="none" 
	d="
M276.000000,513.000000 
	C262.979095,513.000000 249.958206,513.000000 236.314880,512.611206 
	C225.497375,510.749786 215.192673,509.806824 205.124100,507.723022 
	C99.706055,485.905823 19.355991,400.443176 3.721664,293.799469 
	C2.946738,288.513580 1.913148,283.265625 1.000000,278.000000 
	C1.000000,264.312439 1.000000,250.624878 1.388877,236.314972 
	C3.928894,222.585938 5.368926,209.315475 8.344129,196.398605 
	C31.310986,96.687889 118.033379,17.831280 219.701843,3.777148 
	C225.158264,3.022881 230.568344,1.933423 236.000000,1.000000 
	C249.020889,1.000000 262.041779,1.000000 275.693054,1.395335 
	C300.512329,3.505584 324.196747,8.121803 346.614624,17.259445 
	C438.656860,54.776325 493.589111,122.432251 510.311218,220.692993 
	C511.235474,226.123901 512.104980,231.564117 513.000000,237.000000 
	C513.000000,250.354233 513.000000,263.708466 512.610596,277.684021 
	C509.972809,291.729919 508.533966,305.349976 505.347504,318.548065 
	C480.480774,421.544647 392.905487,498.566010 286.879120,511.164581 
	C283.231567,511.597992 279.625427,512.380371 276.000000,513.000000 
M284.730927,172.662491 
	C292.153046,181.857285 299.575165,191.052063 307.164825,200.454422 
	C300.197937,206.078934 293.406555,211.561752 286.522736,217.119217 
	C274.656921,202.466995 263.077332,188.168198 251.251282,173.565063 
	C239.292526,188.311218 227.681381,202.628723 215.921783,217.129288 
	C208.929077,211.455383 202.259064,206.043335 195.369537,200.453156 
	C203.194687,190.719696 210.810898,181.246140 218.427109,171.772568 
	C218.127563,171.427109 217.828033,171.081650 217.528488,170.736191 
	C215.468994,171.624451 213.355423,172.405899 211.358047,173.416870 
	C176.209534,191.207306 158.688278,221.266037 151.916870,258.826508 
	C147.019760,285.990417 142.389297,313.208710 137.004364,340.276306 
	C132.893723,360.938538 127.786934,381.402588 123.080551,402.143097 
	C209.529633,421.242737 295.635864,421.166595 382.022034,402.117340 
	C381.874939,401.146545 381.798615,400.344482 381.628448,399.562836 
	C373.918732,364.151306 365.974243,328.788818 358.584625,293.310699 
	C355.163177,276.883972 354.033264,259.910126 349.735992,243.750320 
	C340.963135,210.760223 321.800018,185.599701 289.809418,171.505051 
	C288.040497,170.725677 286.026001,170.503677 284.125854,170.022247 
	C284.165131,170.719604 284.204407,171.416946 284.730927,172.662491 
M279.411987,84.050812 
	C259.256012,84.050888 239.100006,84.062271 218.944046,84.046211 
	C209.030777,84.038307 201.348602,88.112328 197.372955,97.257126 
	C195.918427,100.602875 195.260513,105.392441 196.523544,108.633018 
	C202.125031,123.004959 208.474091,137.090500 214.809586,151.164001 
	C215.469360,152.629608 217.819336,154.233704 219.400085,154.249268 
	C240.220352,154.454163 261.043579,154.333633 281.865265,154.447281 
	C284.598633,154.462189 285.953278,153.651947 287.031006,151.083725 
	C292.875305,137.156754 299.059113,123.371010 304.789062,109.398468 
	C305.837006,106.843002 306.052216,103.478088 305.412750,100.780563 
	C302.803284,89.772835 294.006317,84.093452 279.411987,84.050812 
z"/>
<path fill="none" opacity="1.000000" stroke="none" 
	d="
M513.000000,236.531342 
	C512.104980,231.564117 511.235474,226.123901 510.311218,220.692993 
	C493.589111,122.432251 438.656860,54.776325 346.614624,17.259445 
	C324.196747,8.121803 300.512329,3.505584 276.161743,1.395335 
	C354.926910,1.000000 433.853790,1.000000 513.000000,1.000000 
	C513.000000,79.354088 513.000000,157.708389 513.000000,236.531342 
z"/>
<path fill="none" opacity="1.000000" stroke="none" 
	d="
M276.468658,513.000000 
	C279.625427,512.380371 283.231567,511.597992 286.879120,511.164581 
	C392.905487,498.566010 480.480774,421.544647 505.347504,318.548065 
	C508.533966,305.349976 509.972809,291.729919 512.610596,278.152679 
	C513.000000,356.260681 513.000000,434.521362 513.000000,513.000000 
	C434.312561,513.000000 355.624939,513.000000 276.468658,513.000000 
z"/>
<path fill="none" opacity="1.000000" stroke="none" 
	d="
M1.000000,278.468658 
	C1.913148,283.265625 2.946738,288.513580 3.721664,293.799469 
	C19.355991,400.443176 99.706055,485.905823 205.124100,507.723022 
	C215.192673,509.806824 225.497375,510.749786 235.846222,512.611206 
	C157.739624,513.000000 79.479256,513.000000 1.000000,513.000000 
	C1.000000,434.979248 1.000000,356.958282 1.000000,278.468658 
z"/>
<path fill="none" opacity="1.000000" stroke="none" 
	d="
M235.531342,1.000000 
	C230.568344,1.933423 225.158264,3.022881 219.701843,3.777148 
	C118.033379,17.831280 31.310986,96.687889 8.344129,196.398605 
	C5.368926,209.315475 3.928894,222.585938 1.388877,235.846313 
	C1.000000,157.739624 1.000000,79.479240 1.000000,1.000000 
	C79.020760,1.000000 157.041718,1.000000 235.531342,1.000000 
z"/>
<path fill="#FEFEFE" opacity="1.000000" stroke="none" 
	d="
M284.487305,172.388397 
	C284.204407,171.416946 284.165131,170.719604 284.125854,170.022247 
	C286.026001,170.503677 288.040497,170.725677 289.809418,171.505051 
	C321.800018,185.599701 340.963135,210.760223 349.735992,243.750320 
	C354.033264,259.910126 355.163177,276.883972 358.584625,293.310699 
	C365.974243,328.788818 373.918732,364.151306 381.628448,399.562836 
	C381.798615,400.344482 381.874939,401.146545 382.022034,402.117340 
	C295.635864,421.166595 209.529633,421.242737 123.080551,402.143097 
	C127.786934,381.402588 132.893723,360.938538 137.004364,340.276306 
	C142.389297,313.208710 147.019760,285.990417 151.916870,258.826508 
	C158.688278,221.266037 176.209534,191.207306 211.358047,173.416870 
	C213.355423,172.405899 215.468994,171.624451 217.528488,170.736191 
	C217.828033,171.081650 218.127563,171.427109 218.427109,171.772568 
	C210.810898,181.246140 203.194687,190.719696 195.369537,200.453156 
	C202.259064,206.043335 208.929077,211.455383 215.921783,217.129288 
	C227.681381,202.628723 239.292526,188.311218 251.251282,173.565063 
	C263.077332,188.168198 274.656921,202.466995 286.522736,217.119217 
	C293.406555,211.561752 300.197937,206.078934 307.164825,200.454422 
	C299.575165,191.052063 292.153046,181.857285 284.487305,172.388397 
M301.291748,314.436310 
	C299.899353,306.648102 295.872925,300.684723 289.217316,296.341949 
	C281.484406,291.296265 272.786804,289.432800 263.884247,287.999146 
	C255.682007,286.678223 247.465454,285.369385 239.351807,283.609833 
	C235.704285,282.818817 232.465164,280.627930 232.110992,276.317963 
	C231.743210,271.842316 233.994858,268.699432 237.921417,266.725800 
	C239.104248,266.131287 240.332199,265.522552 241.610229,265.237427 
	C255.742233,262.084625 268.726196,263.294189 278.836334,275.470886 
	C285.304626,272.456665 291.724518,269.464996 298.321289,266.390900 
	C292.171814,252.038727 280.760162,245.350571 266.130859,242.686584 
	C266.130859,238.048355 266.130859,233.789886 266.130859,229.188522 
	C261.878357,229.188522 258.075745,229.188522 254.273117,229.188522 
	C250.531357,229.188522 246.789597,229.188522 242.628906,229.188522 
	C242.628906,234.195908 242.628906,238.453888 242.628906,242.596008 
	C229.384674,245.642883 224.440598,247.854004 218.175095,252.914597 
	C203.263901,264.958160 204.490875,292.613983 220.841080,300.416382 
	C228.477158,304.060303 237.082947,305.791504 245.370438,307.916931 
	C253.389938,309.973694 261.629242,311.175476 269.643799,313.248444 
	C273.449524,314.232819 276.540924,316.898621 276.878357,321.267609 
	C277.208984,325.548279 275.482758,329.200806 271.839447,331.501343 
	C269.492065,332.983551 266.841644,334.284576 264.152863,334.879456 
	C245.188095,339.075317 230.299774,332.633240 223.723526,319.917084 
	C216.670593,322.951080 209.605515,325.990295 202.538391,329.030396 
	C206.021851,338.003296 211.108032,345.185974 218.857239,349.434662 
	C226.277344,353.502960 234.515259,356.079620 242.952301,359.541016 
	C242.952301,363.109924 242.952301,367.576447 242.952301,372.224976 
	C250.796921,372.224976 258.369385,372.224976 266.307068,372.224976 
	C266.307068,367.150970 266.307068,362.360046 266.307068,357.680969 
	C294.572083,349.539551 304.524445,337.460693 301.291748,314.436310 
z"/>
<path fill="#FEFEFE" opacity="1.000000" stroke="none" 
	d="
M279.895752,84.050728 
	C294.006317,84.093452 302.803284,89.772835 305.412750,100.780563 
	C306.052216,103.478088 305.837006,106.843002 304.789062,109.398468 
	C299.059113,123.371010 292.875305,137.156754 287.031006,151.083725 
	C285.953278,153.651947 284.598633,154.462189 281.865265,154.447281 
	C261.043579,154.333633 240.220352,154.454163 219.400085,154.249268 
	C217.819336,154.233704 215.469360,152.629608 214.809586,151.164001 
	C208.474091,137.090500 202.125031,123.004959 196.523544,108.633018 
	C195.260513,105.392441 195.918427,100.602875 197.372955,97.257126 
	C201.348602,88.112328 209.030777,84.038307 218.944046,84.046211 
	C239.100006,84.062271 259.256012,84.050888 279.895752,84.050728 
z"/>
<path fill="#030303" opacity="1.000000" stroke="none" 
	d="
M301.413696,314.850891 
	C304.524445,337.460693 294.572083,349.539551 266.307068,357.680969 
	C266.307068,362.360046 266.307068,367.150970 266.307068,372.224976 
	C258.369385,372.224976 250.796921,372.224976 242.952301,372.224976 
	C242.952301,367.576447 242.952301,363.109924 242.952301,359.541016 
	C234.515259,356.079620 226.277344,353.502960 218.857239,349.434662 
	C211.108032,345.185974 206.021851,338.003296 202.538391,329.030396 
	C209.605515,325.990295 216.670593,322.951080 223.723526,319.917084 
	C230.299774,332.633240 245.188095,339.075317 264.152863,334.879456 
	C266.841644,334.284576 269.492065,332.983551 271.839447,331.501343 
	C275.482758,329.200806 277.208984,325.548279 276.878357,321.267609 
	C276.540924,316.898621 273.449524,314.232819 269.643799,313.248444 
	C261.629242,311.175476 253.389938,309.973694 245.370438,307.916931 
	C237.082947,305.791504 228.477158,304.060303 220.841080,300.416382 
	C204.490875,292.613983 203.263901,264.958160 218.175095,252.914597 
	C224.440598,247.854004 229.384674,245.642883 242.628906,242.596008 
	C242.628906,238.453888 242.628906,234.195908 242.628906,229.188522 
	C246.789597,229.188522 250.531357,229.188522 254.273117,229.188522 
	C258.075745,229.188522 261.878357,229.188522 266.130859,229.188522 
	C266.130859,233.789886 266.130859,238.048355 266.130859,242.686584 
	C280.760162,245.350571 292.171814,252.038727 298.321289,266.390900 
	C291.724518,269.464996 285.304626,272.456665 278.836334,275.470886 
	C268.726196,263.294189 255.742233,262.084625 241.610229,265.237427 
	C240.332199,265.522552 239.104248,266.131287 237.921417,266.725800 
	C233.994858,268.699432 231.743210,271.842316 232.110992,276.317963 
	C232.465164,280.627930 235.704285,282.818817 239.351807,283.609833 
	C247.465454,285.369385 255.682007,286.678223 263.884247,287.999146 
	C272.786804,289.432800 281.484406,291.296265 289.217316,296.341949 
	C295.872925,300.684723 299.899353,306.648102 301.413696,314.850891 
z"/>
</svg>