<svg version="1.1" id="Layer_1" xmlns="http://www.w3.org/2000/svg" xmlns:xlink="http://www.w3.org/1999/xlink" x="0px" y="0px"
	 width="100%" viewBox="0 0 512 512" enable-background="new 0 0 512 512" xml:space="preserve">
<path fill="#000000" opacity="1.000000" stroke="none" 
	d="
M513.000000,236.000000 
	C513.000000,249.687561 513.000000,263.375122 512.952209,277.928070 
	C511.073273,292.614441 509.510712,306.497955 505.694275,319.954224 
	C478.543762,415.684601 417.179718,477.502899 321.643066,505.347595 
	C307.711578,509.407990 293.306854,510.962402 279.000000,513.000000 
	C264.312439,513.000000 249.624878,513.000000 234.103760,512.861938 
	C224.889114,511.496613 216.434769,510.636017 208.139481,508.979095 
	C170.559677,501.472717 136.020615,486.818878 105.221268,463.881348 
	C58.528252,429.107208 27.006659,383.712952 10.443792,327.856812 
	C5.601000,311.525085 3.243856,294.789307 1.000000,278.000000 
	C1.000000,263.645782 1.000000,249.291550 1.000499,234.077133 
	C1.275350,232.088867 1.670854,230.975082 1.805863,229.830551 
	C3.795392,212.964447 6.739828,196.246185 12.233947,180.175125 
	C42.529186,91.557243 102.593597,34.124847 192.868332,8.610456 
	C207.620224,4.441123 222.805786,2.647736 238.000000,1.000000 
	C250.354233,1.000000 262.708466,1.000000 275.910400,1.135937 
	C282.046356,1.801540 287.365448,2.121571 292.617859,2.894492 
	C330.014343,8.397592 364.822845,20.991816 396.461761,41.769279 
	C449.466858,76.578033 484.975067,124.537033 503.331757,185.210388 
	C508.349304,201.794693 510.888550,218.858505 513.000000,236.000000 
M105.336121,164.154922 
	C100.041405,159.717712 94.481438,158.975876 89.828331,162.085831 
	C84.634193,165.557388 82.458435,171.525711 84.685936,177.801910 
	C91.123497,195.940414 104.661919,205.441452 123.130936,208.584564 
	C129.049011,209.591721 129.353073,209.781342 127.177666,215.516052 
	C121.810928,229.663666 118.967926,244.235809 119.348465,259.417053 
	C120.237679,294.890808 134.392120,324.048523 160.983047,347.342865 
	C163.074799,349.175293 165.649124,350.559937 167.748642,354.175720 
	C165.426102,356.542175 162.689346,358.461334 160.337265,360.772064 
	C155.526566,365.498199 152.718414,371.358734 152.443741,378.092834 
	C151.982986,389.389191 157.246887,397.710022 167.104202,402.779419 
	C177.238251,407.991211 187.014725,406.221344 195.414612,398.912506 
	C202.061218,393.129303 208.265152,386.788940 214.246490,380.309052 
	C217.489273,376.795990 220.842575,375.959076 225.309875,376.814606 
	C246.012115,380.779358 266.689240,380.308594 287.149994,375.368744 
	C291.892273,374.223785 294.891022,375.224548 298.095428,378.627594 
	C304.601227,385.536682 311.214020,392.392273 318.275879,398.719513 
	C329.051697,408.374420 344.061981,407.803955 353.938904,397.893097 
	C363.973480,387.823975 364.287384,372.725067 354.561035,361.817749 
	C351.571259,358.464935 348.365692,355.288177 345.085205,352.216309 
	C342.517578,349.811920 342.716705,348.112274 345.360016,345.782471 
	C359.071533,333.697266 369.531372,319.212128 376.442352,302.266418 
	C377.636108,299.339417 379.440704,298.157532 382.454346,298.141266 
	C386.949738,298.116974 391.457581,298.108337 395.936554,297.775696 
	C406.574158,296.985779 414.464996,288.770142 414.620667,278.038025 
	C414.816345,264.546417 414.776764,251.048889 414.639832,237.555939 
	C414.549255,228.634293 408.782715,221.286087 400.353516,218.505447 
	C394.967773,216.728821 389.440033,217.258728 383.996002,217.467010 
	C379.615875,217.634613 377.496826,215.986679 375.862274,212.001999 
	C367.692810,192.086777 354.443695,176.080795 337.287262,163.238068 
	C330.915070,158.468079 330.871490,158.543167 333.061615,151.083557 
	C336.107147,140.710190 339.137726,130.332428 342.168335,119.954697 
	C342.637512,118.348152 343.202759,116.650459 341.861084,115.240639 
	C340.390411,113.695259 338.754578,114.775299 337.214081,115.263412 
	C335.946075,115.665192 334.700287,116.140633 333.456329,116.614082 
	C316.344818,123.126625 299.230591,129.632050 282.129669,136.172333 
	C278.980804,137.376617 275.902802,137.938309 272.422546,137.502289 
	C257.482513,135.630615 242.562561,135.866302 227.657089,138.293213 
	C196.331467,143.393616 169.493820,156.865067 148.385849,180.830185 
	C144.816849,184.882278 141.991714,188.341553 136.226089,184.722168 
	C135.093063,184.010910 133.300262,184.332169 131.808868,184.213165 
	C120.571457,183.316437 111.313515,179.601471 107.742989,167.570419 
	C107.428360,166.510239 106.489990,165.635178 105.336121,164.154922 
z"/>
<path fill="#000000" opacity="1.000000" stroke="none" 
	d="
M211.064453,187.578369 
	C210.953781,180.624832 210.995209,174.125443 210.891006,167.628403 
	C210.835175,164.147934 212.055817,162.544540 215.846436,162.573959 
	C233.678284,162.712357 251.512207,162.697357 269.344391,162.583237 
	C272.992249,162.559891 274.437531,163.871460 274.331757,167.539627 
	C274.154144,173.701004 274.233673,179.871414 274.290497,186.037231 
	C274.317230,188.935059 273.100586,190.317764 270.125793,190.311722 
	C251.793182,190.274536 233.460480,190.292862 215.127808,190.284378 
	C213.395050,190.283585 211.753479,190.064651 211.064453,187.578369 
z"/>
<path fill="#000000" opacity="1.000000" stroke="none" 
	d="
M331.061462,235.732224 
	C324.807831,242.880707 317.162354,244.460068 310.440613,240.275040 
	C304.057068,236.300568 301.544250,228.372559 304.492645,221.509140 
	C307.840698,213.715607 316.755371,210.175415 324.482941,213.570663 
	C332.960541,217.295425 335.706635,226.126236 331.061462,235.732224 
z"/>
</svg>