<svg version="1.1" id="Layer_1" xmlns="http://www.w3.org/2000/svg" xmlns:xlink="http://www.w3.org/1999/xlink" x="0px" y="0px"
	 width="100%" viewBox="0 0 512 512" enable-background="new 0 0 512 512" xml:space="preserve">
<path fill="#010101" opacity="1.000000" stroke="none" 
	d="
M276.000000,513.000000 
	C263.312439,513.000000 250.624878,513.000000 237.273209,512.630249 
	C223.478699,510.158600 210.140411,508.920471 197.250809,505.818085 
	C95.262306,481.270599 19.206623,397.920776 3.777491,294.348938 
	C2.963181,288.882690 1.930842,283.448914 1.000001,278.000000 
	C1.000000,264.312439 1.000000,250.624878 1.379737,236.297974 
	C3.639442,223.680252 4.761147,211.524307 7.518127,199.751297 
	C31.781874,96.139015 114.489616,19.910385 219.707855,3.765546 
	C225.151840,2.930212 230.569885,1.925733 236.000000,1.000001 
	C249.354233,1.000000 262.708466,1.000000 276.683807,1.396016 
	C287.174744,3.161622 297.136963,4.059792 306.900208,5.973211 
	C412.818878,26.731407 494.650726,112.843132 510.206116,219.667526 
	C511.049286,225.457855 512.064758,231.223083 513.000000,237.000000 
	C513.000000,250.354233 513.000000,263.708466 512.619751,277.692169 
	C507.545349,328.719269 490.367981,374.343201 458.928650,414.112122 
	C416.689117,467.542694 361.833069,499.814514 294.332001,510.197113 
	C288.222168,511.136871 282.110718,512.065979 276.000000,513.000000 
M215.956924,169.637726 
	C194.861649,164.263779 173.773941,158.859589 152.653839,153.585098 
	C151.269714,153.239426 149.099472,153.317642 148.206863,154.162354 
	C141.592422,160.421967 135.209137,166.925827 128.491653,173.613358 
	C165.698898,196.567734 202.443604,219.236725 239.434586,242.057678 
	C217.611847,265.130493 196.239731,287.794250 174.716995,310.313995 
	C173.435760,311.654633 170.975647,312.373047 169.015503,312.478668 
	C156.038239,313.177979 143.047409,313.624512 130.061691,314.169617 
	C127.987679,314.256683 125.917107,314.425507 124.696793,314.502686 
	C149.615936,339.449554 174.582565,364.443970 199.537216,389.426392 
	C199.652618,386.984863 199.804886,384.028961 199.929916,381.071930 
	C200.436752,369.084839 200.783661,357.087524 201.566879,345.118652 
	C201.720245,342.775085 203.006653,339.977661 204.694809,338.345764 
	C218.831894,324.679779 233.185608,311.237885 247.472626,297.726990 
	C255.536545,290.101135 263.597778,282.472504 272.175049,274.358063 
	C295.059265,311.650452 317.625854,348.425232 340.464569,385.643463 
	C346.685791,379.322845 352.436279,373.298462 358.411713,367.506165 
	C360.567719,365.416321 361.117920,363.643097 360.345215,360.572266 
	C349.231812,316.407013 338.344788,272.184784 327.274200,228.008652 
	C326.413635,224.574692 326.852814,222.361237 329.573181,219.832321 
	C346.536743,204.062851 363.326904,188.106064 380.110809,172.144379 
	C391.293396,161.509644 392.551788,145.638336 383.240875,134.363831 
	C372.767181,121.681358 354.117950,121.153519 342.325562,133.455276 
	C325.951172,150.537018 309.719330,167.756256 293.539215,185.022293 
	C291.264374,187.449829 289.357208,188.326553 285.858459,187.409592 
	C262.869293,181.384583 239.797150,175.676239 215.956924,169.637726 
z"/>
<path fill="none" opacity="1.000000" stroke="none" 
	d="
M276.468658,513.000000 
	C282.110718,512.065979 288.222168,511.136871 294.332001,510.197113 
	C361.833069,499.814514 416.689117,467.542694 458.928650,414.112122 
	C490.367981,374.343201 507.545349,328.719269 512.619751,278.160828 
	C513.000000,356.260681 513.000000,434.521362 513.000000,513.000000 
	C434.312561,513.000000 355.624939,513.000000 276.468658,513.000000 
z"/>
<path fill="none" opacity="1.000000" stroke="none" 
	d="
M1.000001,278.468658 
	C1.930842,283.448914 2.963181,288.882690 3.777491,294.348938 
	C19.206623,397.920776 95.262306,481.270599 197.250809,505.818085 
	C210.140411,508.920471 223.478699,510.158600 236.804550,512.630249 
	C158.406448,513.000000 79.812904,513.000000 1.000000,513.000000 
	C1.000000,434.979248 1.000000,356.958282 1.000001,278.468658 
z"/>
<path fill="none" opacity="1.000000" stroke="none" 
	d="
M513.000000,236.531342 
	C512.064758,231.223083 511.049286,225.457855 510.206116,219.667526 
	C494.650726,112.843132 412.818878,26.731407 306.900208,5.973211 
	C297.136963,4.059792 287.174744,3.161622 277.152466,1.396016 
	C355.593719,1.000000 434.187408,1.000000 513.000000,1.000000 
	C513.000000,79.354095 513.000000,157.708389 513.000000,236.531342 
z"/>
<path fill="none" opacity="1.000000" stroke="none" 
	d="
M235.531342,1.000001 
	C230.569885,1.925733 225.151840,2.930212 219.707855,3.765546 
	C114.489616,19.910385 31.781874,96.139015 7.518127,199.751297 
	C4.761147,211.524307 3.639442,223.680252 1.379737,235.829315 
	C1.000000,157.739624 1.000000,79.479240 1.000000,1.000000 
	C79.020760,1.000000 157.041718,1.000000 235.531342,1.000001 
z"/>
<path fill="#FEFEFE" opacity="1.000000" stroke="none" 
	d="
M216.354492,169.751160 
	C239.797150,175.676239 262.869293,181.384583 285.858459,187.409592 
	C289.357208,188.326553 291.264374,187.449829 293.539215,185.022293 
	C309.719330,167.756256 325.951172,150.537018 342.325562,133.455276 
	C354.117950,121.153519 372.767181,121.681358 383.240875,134.363831 
	C392.551788,145.638336 391.293396,161.509644 380.110809,172.144379 
	C363.326904,188.106064 346.536743,204.062851 329.573181,219.832321 
	C326.852814,222.361237 326.413635,224.574692 327.274200,228.008652 
	C338.344788,272.184784 349.231812,316.407013 360.345215,360.572266 
	C361.117920,363.643097 360.567719,365.416321 358.411713,367.506165 
	C352.436279,373.298462 346.685791,379.322845 340.464569,385.643463 
	C317.625854,348.425232 295.059265,311.650452 272.175049,274.358063 
	C263.597778,282.472504 255.536545,290.101135 247.472626,297.726990 
	C233.185608,311.237885 218.831894,324.679779 204.694809,338.345764 
	C203.006653,339.977661 201.720245,342.775085 201.566879,345.118652 
	C200.783661,357.087524 200.436752,369.084839 199.929916,381.071930 
	C199.804886,384.028961 199.652618,386.984863 199.537216,389.426392 
	C174.582565,364.443970 149.615936,339.449554 124.696793,314.502686 
	C125.917107,314.425507 127.987679,314.256683 130.061691,314.169617 
	C143.047409,313.624512 156.038239,313.177979 169.015503,312.478668 
	C170.975647,312.373047 173.435760,311.654633 174.716995,310.313995 
	C196.239731,287.794250 217.611847,265.130493 239.434586,242.057678 
	C202.443604,219.236725 165.698898,196.567734 128.491653,173.613358 
	C135.209137,166.925827 141.592422,160.421967 148.206863,154.162354 
	C149.099472,153.317642 151.269714,153.239426 152.653839,153.585098 
	C173.773941,158.859589 194.861649,164.263779 216.354492,169.751160 
z"/>
</svg>