<svg version="1.1" id="Layer_1" xmlns="http://www.w3.org/2000/svg" xmlns:xlink="http://www.w3.org/1999/xlink" x="0px" y="0px"
	 width="100%" viewBox="0 0 512 512" enable-background="new 0 0 512 512" xml:space="preserve">
<path fill="#050505" opacity="1.000000" stroke="none" 
	d="
M236.000000,1.000000 
	C249.354233,1.000000 262.708466,1.000000 276.684296,1.395765 
	C287.175720,3.161146 297.136292,4.065609 306.901367,5.971822 
	C412.714966,26.627394 494.490662,112.675987 510.208527,219.662674 
	C511.059296,225.453491 512.065918,231.221420 513.000000,237.000000 
	C513.000000,250.020889 513.000000,263.041779 512.629822,276.726166 
	C508.169189,324.507629 492.988281,367.663147 465.046844,405.905914 
	C422.558716,464.058319 365.680969,499.043671 294.358673,510.191742 
	C288.242249,511.147797 282.119690,512.064819 276.000000,513.000000 
	C263.312439,513.000000 250.624878,513.000000 237.272629,512.630737 
	C223.494141,510.164337 210.169312,508.940796 197.299957,505.831818 
	C95.089493,481.140076 19.392948,398.175415 3.755046,294.279785 
	C2.985069,289.164215 1.924990,284.092255 0.999999,279.000000 
	C1.000000,264.645782 1.000000,250.291550 1.387776,235.323761 
	C3.746130,222.747543 5.010032,210.617462 7.798006,198.848434 
	C32.235756,95.687897 114.750923,19.876600 219.703217,3.766489 
	C225.148727,2.930604 230.568329,1.926035 236.000000,1.000000 
M116.352859,177.101532 
	C116.462952,177.927200 116.581635,178.751816 116.681892,179.578674 
	C121.137321,216.322678 154.003464,238.668823 189.633896,228.993530 
	C192.633926,228.178879 194.151581,229.115295 196.028946,230.997482 
	C224.861191,259.903931 253.711761,288.792328 282.668762,317.573578 
	C285.088196,319.978333 285.632111,321.987671 284.716278,325.303894 
	C273.197113,367.014557 310.494354,405.991974 352.739777,396.568451 
	C356.559174,395.716522 359.784210,394.279205 360.872772,390.216248 
	C361.948608,386.201080 360.018799,383.270782 357.209473,380.522003 
	C348.515717,372.015656 339.932281,363.395355 331.393982,354.732605 
	C330.183380,353.504364 328.705017,351.825623 328.642395,350.302277 
	C328.350739,343.209900 328.513184,336.098877 328.513184,328.565430 
	C335.219391,328.565430 341.372925,328.239563 347.463593,328.716461 
	C350.116211,328.924133 353.214050,330.174805 355.124298,331.989197 
	C364.182495,340.593079 372.825836,349.631561 381.767914,358.360596 
	C387.227142,363.689697 394.322754,361.549835 396.172272,354.134918 
	C396.773041,351.726501 397.056244,349.227936 397.344940,346.754272 
	C402.080261,306.180969 364.557526,273.876495 325.201508,284.787720 
	C321.772736,285.738312 319.839111,284.948181 317.502319,282.599640 
	C289.058167,254.012344 260.552856,225.485535 231.945374,197.061829 
	C229.201614,194.335709 228.341537,192.113220 229.413757,188.116135 
	C240.542816,146.628769 202.989792,107.910439 161.134140,117.458321 
	C157.505142,118.286148 154.372910,119.624329 153.204300,123.400475 
	C151.988541,127.328979 153.594421,130.391800 156.467056,133.197815 
	C165.287033,141.813278 173.975128,150.564468 182.652176,159.324615 
	C183.773941,160.457123 185.279480,161.925156 185.329163,163.284485 
	C185.594742,170.550049 185.454391,177.830444 185.454391,185.553268 
	C178.583771,185.553268 172.279236,185.783157 166.007629,185.429504 
	C163.790329,185.304474 161.141983,184.286804 159.563858,182.768692 
	C150.319534,173.875961 141.406631,164.639938 132.233749,155.671265 
	C126.770706,150.329834 119.405762,152.383301 117.889229,159.855545 
	C116.806519,165.190277 116.782097,170.739792 116.352859,177.101532 
M158.568176,297.068115 
	C148.669830,306.967834 138.790756,316.886932 128.866699,326.760834 
	C121.626686,333.964233 117.339905,342.613373 116.370094,352.759125 
	C115.462379,362.255310 117.637299,371.020691 123.132034,379.217377 
	C139.708755,362.644257 155.851410,346.502319 171.997635,330.363983 
	C176.947983,325.416016 181.790131,320.351410 186.904724,315.579102 
	C190.350281,312.364166 195.025665,312.618774 198.174271,315.703766 
	C201.296432,318.762848 201.478424,323.362579 198.563766,327.003357 
	C197.838409,327.909393 196.958374,328.693390 196.133820,329.517883 
	C179.399567,346.251068 162.672928,362.991882 145.919128,379.705444 
	C142.300232,383.315674 138.581711,386.826050 134.635437,390.647369 
	C136.129105,391.660126 137.016144,392.384491 138.006943,392.914978 
	C153.375610,401.143066 172.163345,399.486237 184.863327,387.113495 
	C209.079941,363.520935 232.607529,339.221100 255.997025,315.642395 
	C236.847626,296.502686 217.454285,277.119171 197.942200,257.616943 
	C185.196075,270.388367 172.132126,283.478241 158.568176,297.068115 
M382.751007,168.285797 
	C387.335999,159.071213 391.872223,149.831879 396.528168,140.653290 
	C398.615540,136.538284 398.055481,132.968994 394.862152,129.748642 
	C391.345367,126.202148 387.809814,122.674133 384.268250,119.152359 
	C381.053986,115.956062 377.501709,115.372078 373.373566,117.456245 
	C358.410583,125.010643 343.307465,132.296738 328.505615,140.152176 
	C326.016815,141.473022 323.669586,144.900864 323.124512,147.716705 
	C321.072510,158.317154 319.558807,169.040680 318.348450,179.775055 
	C317.918152,183.591461 316.325836,186.141968 313.746307,188.682571 
	C302.630005,199.631088 291.647736,210.715698 280.811829,221.555557 
	C284.884857,225.515335 288.639099,229.165207 292.677460,233.091248 
	C303.798553,221.933868 315.116547,210.452271 326.631378,199.171585 
	C328.243439,197.592300 330.724792,196.420883 332.968201,196.046753 
	C343.794067,194.241455 354.658569,192.634933 365.546844,191.253174 
	C370.026672,190.684647 372.776642,188.489075 374.623535,184.538727 
	C377.083527,179.277023 379.760040,174.116562 382.751007,168.285797 
z"/>
<path fill="none" opacity="1.000000" stroke="none" 
	d="
M276.468658,513.000000 
	C282.119690,512.064819 288.242249,511.147797 294.358673,510.191742 
	C365.680969,499.043671 422.558716,464.058319 465.046844,405.905914 
	C492.988281,367.663147 508.169189,324.507629 512.629822,277.194824 
	C513.000000,355.593842 513.000000,434.187714 513.000000,513.000000 
	C434.312561,513.000000 355.624939,513.000000 276.468658,513.000000 
z"/>
<path fill="none" opacity="1.000000" stroke="none" 
	d="
M0.999999,279.468658 
	C1.924990,284.092255 2.985069,289.164215 3.755046,294.279785 
	C19.392948,398.175415 95.089493,481.140076 197.299957,505.831818 
	C210.169312,508.940796 223.494141,510.164337 236.803970,512.630737 
	C158.406601,513.000000 79.813217,513.000000 1.000000,513.000000 
	C1.000000,435.312592 1.000000,357.624939 0.999999,279.468658 
z"/>
<path fill="none" opacity="1.000000" stroke="none" 
	d="
M513.000000,236.531342 
	C512.065918,231.221420 511.059296,225.453491 510.208527,219.662674 
	C494.490662,112.675987 412.714966,26.627394 306.901367,5.971822 
	C297.136292,4.065609 287.175720,3.161146 277.152954,1.395765 
	C355.593719,1.000000 434.187408,1.000000 513.000000,1.000000 
	C513.000000,79.354095 513.000000,157.708389 513.000000,236.531342 
z"/>
<path fill="none" opacity="1.000000" stroke="none" 
	d="
M235.531342,1.000000 
	C230.568329,1.926035 225.148727,2.930604 219.703217,3.766489 
	C114.750923,19.876600 32.235756,95.687897 7.798006,198.848434 
	C5.010032,210.617462 3.746130,222.747543 1.387776,234.855103 
	C1.000000,157.072800 1.000000,79.145592 1.000000,1.000000 
	C79.020760,1.000000 157.041718,1.000000 235.531342,1.000000 
z"/>
<path fill="#FCFCFC" opacity="1.000000" stroke="none" 
	d="
M116.319153,176.647491 
	C116.782097,170.739792 116.806519,165.190277 117.889229,159.855545 
	C119.405762,152.383301 126.770706,150.329834 132.233749,155.671265 
	C141.406631,164.639938 150.319534,173.875961 159.563858,182.768692 
	C161.141983,184.286804 163.790329,185.304474 166.007629,185.429504 
	C172.279236,185.783157 178.583771,185.553268 185.454391,185.553268 
	C185.454391,177.830444 185.594742,170.550049 185.329163,163.284485 
	C185.279480,161.925156 183.773941,160.457123 182.652176,159.324615 
	C173.975128,150.564468 165.287033,141.813278 156.467056,133.197815 
	C153.594421,130.391800 151.988541,127.328979 153.204300,123.400475 
	C154.372910,119.624329 157.505142,118.286148 161.134140,117.458321 
	C202.989792,107.910439 240.542816,146.628769 229.413757,188.116135 
	C228.341537,192.113220 229.201614,194.335709 231.945374,197.061829 
	C260.552856,225.485535 289.058167,254.012344 317.502319,282.599640 
	C319.839111,284.948181 321.772736,285.738312 325.201508,284.787720 
	C364.557526,273.876495 402.080261,306.180969 397.344940,346.754272 
	C397.056244,349.227936 396.773041,351.726501 396.172272,354.134918 
	C394.322754,361.549835 387.227142,363.689697 381.767914,358.360596 
	C372.825836,349.631561 364.182495,340.593079 355.124298,331.989197 
	C353.214050,330.174805 350.116211,328.924133 347.463593,328.716461 
	C341.372925,328.239563 335.219391,328.565430 328.513184,328.565430 
	C328.513184,336.098877 328.350739,343.209900 328.642395,350.302277 
	C328.705017,351.825623 330.183380,353.504364 331.393982,354.732605 
	C339.932281,363.395355 348.515717,372.015656 357.209473,380.522003 
	C360.018799,383.270782 361.948608,386.201080 360.872772,390.216248 
	C359.784210,394.279205 356.559174,395.716522 352.739777,396.568451 
	C310.494354,405.991974 273.197113,367.014557 284.716278,325.303894 
	C285.632111,321.987671 285.088196,319.978333 282.668762,317.573578 
	C253.711761,288.792328 224.861191,259.903931 196.028946,230.997482 
	C194.151581,229.115295 192.633926,228.178879 189.633896,228.993530 
	C154.003464,238.668823 121.137321,216.322678 116.681892,179.578674 
	C116.581635,178.751816 116.462952,177.927200 116.319153,176.647491 
z"/>
<path fill="#FCFCFC" opacity="1.000000" stroke="none" 
	d="
M158.818176,296.818115 
	C172.132126,283.478241 185.196075,270.388367 197.942200,257.616943 
	C217.454285,277.119171 236.847626,296.502686 255.997025,315.642395 
	C232.607529,339.221100 209.079941,363.520935 184.863327,387.113495 
	C172.163345,399.486237 153.375610,401.143066 138.006943,392.914978 
	C137.016144,392.384491 136.129105,391.660126 134.635437,390.647369 
	C138.581711,386.826050 142.300232,383.315674 145.919128,379.705444 
	C162.672928,362.991882 179.399567,346.251068 196.133820,329.517883 
	C196.958374,328.693390 197.838409,327.909393 198.563766,327.003357 
	C201.478424,323.362579 201.296432,318.762848 198.174271,315.703766 
	C195.025665,312.618774 190.350281,312.364166 186.904724,315.579102 
	C181.790131,320.351410 176.947983,325.416016 171.997635,330.363983 
	C155.851410,346.502319 139.708755,362.644257 123.132034,379.217377 
	C117.637299,371.020691 115.462379,362.255310 116.370094,352.759125 
	C117.339905,342.613373 121.626686,333.964233 128.866699,326.760834 
	C138.790756,316.886932 148.669830,306.967834 158.818176,296.818115 
z"/>
<path fill="#FCFCFC" opacity="1.000000" stroke="none" 
	d="
M382.547272,168.599197 
	C379.760040,174.116562 377.083527,179.277023 374.623535,184.538727 
	C372.776642,188.489075 370.026672,190.684647 365.546844,191.253174 
	C354.658569,192.634933 343.794067,194.241455 332.968201,196.046753 
	C330.724792,196.420883 328.243439,197.592300 326.631378,199.171585 
	C315.116547,210.452271 303.798553,221.933868 292.677460,233.091248 
	C288.639099,229.165207 284.884857,225.515335 280.811829,221.555557 
	C291.647736,210.715698 302.630005,199.631088 313.746307,188.682571 
	C316.325836,186.141968 317.918152,183.591461 318.348450,179.775055 
	C319.558807,169.040680 321.072510,158.317154 323.124512,147.716705 
	C323.669586,144.900864 326.016815,141.473022 328.505615,140.152176 
	C343.307465,132.296738 358.410583,125.010643 373.373566,117.456245 
	C377.501709,115.372078 381.053986,115.956062 384.268250,119.152359 
	C387.809814,122.674133 391.345367,126.202148 394.862152,129.748642 
	C398.055481,132.968994 398.615540,136.538284 396.528168,140.653290 
	C391.872223,149.831879 387.335999,159.071213 382.547272,168.599197 
z"/>
</svg>